<?xml version="1.0" encoding="utf-8"?>
<!-- Generator: Adobe Illustrator 24.3.0, SVG Export Plug-In . SVG Version: 6.00 Build 0)  -->
<svg version="1.1" id="Layer_1" xmlns="http://www.w3.org/2000/svg" xmlns:xlink="http://www.w3.org/1999/xlink" x="0px" y="0px"
	 viewBox="0 0 919.2 800" style="enable-background:new 0 0 919.2 800;" xml:space="preserve">
<style type="text/css">
	.st0{fill:#FDD2D0;}
	.st1{fill:#8A1C32;}
	.st2{fill:#E02D27;}
	.st3{opacity:0.95;fill:#D1942C;enable-background:new    ;}
	.st4{fill:#F1B82D;}
	.st5{fill:url(#SVGID_1_);}
	.st6{fill:url(#SVGID_2_);}
	.st7{fill:url(#SVGID_3_);}
	.st8{fill:url(#SVGID_4_);}
	.st9{fill:#FFFFFF;}
	.st10{fill:#D1952C;}
	.st11{fill:#332D18;}
</style>
<g>
	<path class="st0" d="M276.9,590.4c-10.5-10.4-19.3-22.7-26.4-36.1c-0.5-0.9-1-1.8-1.5-2.8c-3.3,1.6-6.5,3.5-9.5,5.9
		c-7,5.5-12.7,12-17.3,19.7c-0.6,1-1.2,2-1.7,3c-0.2,0.4-0.4,0.8-0.6,1.2c-0.3,0.6-0.7,1.2-1,1.8c-0.3,0.5-0.5,1-0.8,1.5
		s-0.5,1-0.8,1.4c-0.3,0.6-0.6,1.2-0.9,1.8c-0.2,0.4-0.4,0.7-0.6,1.1c-0.3,0.7-0.7,1.4-1,2c-0.1,0.2-0.2,0.4-0.3,0.5
		c-1.3,2.7-2.5,5.4-3.6,8.2l0,0c26.8,25.4,58.7,45.4,93.9,58.4c1.5-13.6,2.7-28,3.7-42.4C297.1,608.4,286.4,599.9,276.9,590.4z"/>
	<path class="st0" d="M637.3,260.9L637.3,260.9c-2.9,0.5-5.5,1.1-7.9,1.6l0,0c-1.4,0.3-2.8,0.6-4,0.9c-0.1,0-0.3,0.1-0.4,0.1
		c-0.6,0.1-1.1,0.3-1.7,0.4c-0.3,0.1-0.6,0.1-0.8,0.2c-0.3,0.1-0.6,0.1-0.8,0.2c-0.4,0.1-0.8,0.2-1.2,0.3c-0.2,0-0.3,0.1-0.5,0.1
		c-0.4,0.1-0.9,0.3-1.2,0.4c-0.1,0-0.2,0.1-0.3,0.1c-0.4,0.1-0.8,0.3-1.2,0.4c2.4,2.9,2.9,7,0.9,10.3c-1.9,3-5.5,4.7-9.4,5.1
		c-0.3,0.1-0.7,0.2-1.1,0.3c-0.1,0-0.2,0.1-0.4,0.1c-0.2,0.1-0.5,0.1-0.7,0.1c-0.1,0-0.3,0-0.4,0.1c-0.3,0-0.5,0.1-0.8,0.1
		c-0.1,0-0.2,0-0.4,0l0,0c0.4,22.9-1.2,67-14.6,113.4c-2.8,9.6-6.3,20.1-10.2,30.7c5.6,3.3,11,7.1,15.9,11.6
		c13.3,11.9,26.1,39.5,27.1,67.5c0.6,16.7-0.2,37.1-1.1,57C655.4,516.7,675,460.7,675,400C675,349.3,661.2,301.7,637.3,260.9z"/>
	<path class="st1" d="M544.5,433.2c0.1,0.4,0.2,0.7,0.3,1.1c0.2-0.6,0.5-1.1,0.7-1.7c0,0-0.1,0-0.1-0.1
		C545.1,432.8,544.8,433,544.5,433.2z"/>
	<path class="st1" d="M580.9,463.3c-2.4-4.5-5.9-8.8-10.1-12.8c-11.3,28.6-22.5,54.3-24.1,61.9c-6.7,30.5-20.7,58.2-40.7,80.1
		c-12.1,12.4-22.5,20-32.7,25.8c0.1,6.4,0.1,26.4-0.1,46.8c41.9-11.5,79.7-32.7,111.1-61C589.5,550.5,594.9,489.9,580.9,463.3z"/>
	<path class="st1" d="M381.7,641.7c-25.8-2.6-51-12-73.1-26c-0.9,14.4-2.2,28.8-3.7,42.4c19.5,7.2,40.1,12.2,61.4,14.8
		c0.7-1.6,1.4-3.1,2.1-4.8C373.6,656.5,375.1,653.9,381.7,641.7z"/>
	<path class="st1" d="M425.4,639.3c-4.3,1-8.6,1.7-12.9,2.2c1.6-0.2,3.3-0.4,4.9-0.6c-7.9,11.6-15.5,23-23,34.1
		c1.9,0,3.7,0.1,5.6,0.1c13.5,0,26.8-1,39.8-2.9c-2.5-15.4-4.7-30-5.7-35C431.2,637.3,428.4,638.6,425.4,639.3z"/>
	<path class="st2" d="M623.3,505.1c-0.9-28-13.8-55.6-27.1-67.5c-5-4.4-10.4-8.3-15.9-11.6c-1.7,4.6-3.4,9.2-5.2,13.7
		c-1.4,3.6-2.8,7.2-4.2,10.7c4.2,4,7.7,8.2,10.1,12.8c13.9,26.7,8.5,87.2,3.4,140.8c5-4.5,9.8-9.2,14.5-14.1
		c8.4-8.8,16.2-18.1,23.3-27.9C623,542.2,623.8,521.8,623.3,505.1z"/>
	<path class="st0" d="M218.9,583.2c-0.3,0.5-0.5,1-0.8,1.5C218.4,584.2,218.6,583.7,218.9,583.2z"/>
	<path class="st3" d="M218.9,583.2c-0.3,0.5-0.5,1-0.8,1.5C218.4,584.2,218.6,583.7,218.9,583.2z"/>
	<path class="st0" d="M188.1,570c-0.1,0.2-0.1,0.4-0.2,0.5C188,570.4,188.1,570.2,188.1,570z"/>
	<path class="st3" d="M188.1,570c-0.1,0.2-0.1,0.4-0.2,0.5C188,570.4,188.1,570.2,188.1,570z"/>
	<path class="st0" d="M235.9,517.2c0-0.2-0.1-0.4-0.1-0.5l0,0C235.8,516.9,235.9,517,235.9,517.2z"/>
	<path class="st3" d="M235.9,517.2c0-0.2-0.1-0.4-0.1-0.5l0,0C235.8,516.9,235.9,517,235.9,517.2z"/>
	<path class="st0" d="M220.5,580.2c-0.2,0.4-0.4,0.8-0.6,1.2C220.1,580.9,220.3,580.6,220.5,580.2z"/>
	<path class="st3" d="M220.5,580.2c-0.2,0.4-0.4,0.8-0.6,1.2C220.1,580.9,220.3,580.6,220.5,580.2z"/>
	<path class="st0" d="M215.9,589c-0.3,0.7-0.7,1.4-1,2C215.2,590.4,215.5,589.7,215.9,589z"/>
	<path class="st3" d="M215.9,589c-0.3,0.7-0.7,1.4-1,2C215.2,590.4,215.5,589.7,215.9,589z"/>
	<path class="st0" d="M237.4,520.3c-0.4-1.3-0.9-2.5-1.3-3.8l0,0C236.5,517.8,237,519.1,237.4,520.3z"/>
	<path class="st3" d="M237.4,520.3c-0.4-1.3-0.9-2.5-1.3-3.8l0,0C236.5,517.8,237,519.1,237.4,520.3z"/>
	<path class="st0" d="M246.9,545.1c0.2,0.5,0.5,1.1,0.7,1.6C247.3,546.2,247.1,545.7,246.9,545.1z"/>
	<path class="st3" d="M246.9,545.1c0.2,0.5,0.5,1.1,0.7,1.6C247.3,546.2,247.1,545.7,246.9,545.1z"/>
	<path class="st0" d="M190.7,562.8c-0.1,0.2-0.2,0.5-0.3,0.7C190.5,563.3,190.6,563,190.7,562.8z"/>
	<path class="st3" d="M190.7,562.8c-0.1,0.2-0.2,0.5-0.3,0.7C190.5,563.3,190.6,563,190.7,562.8z"/>
	<path class="st0" d="M214.6,591.6c-1.3,2.7-2.5,5.4-3.6,8.2C212.1,597,213.3,594.3,214.6,591.6z"/>
	<path class="st3" d="M214.6,591.6c-1.3,2.7-2.5,5.4-3.6,8.2C212.1,597,213.3,594.3,214.6,591.6z"/>
	<path class="st0" d="M217.3,586.1c-0.3,0.6-0.6,1.2-0.9,1.8C216.7,587.3,217,586.7,217.3,586.1z"/>
	<path class="st3" d="M217.3,586.1c-0.3,0.6-0.6,1.2-0.9,1.8C216.7,587.3,217,586.7,217.3,586.1z"/>
	<path class="st0" d="M189.2,566.7L189.2,566.7L189.2,566.7z"/>
	<path class="st3" d="M189.2,566.7L189.2,566.7L189.2,566.7z"/>
	<path class="st0" d="M187,574L187,574L187,574z"/>
	<path class="st3" d="M187,574L187,574L187,574z"/>
	<path class="st0" d="M244.8,540.3c0.3,0.7,0.6,1.4,0.8,2.1C245.4,541.6,245.1,541,244.8,540.3z"/>
	<path class="st3" d="M244.8,540.3c0.3,0.7,0.6,1.4,0.8,2.1C245.4,541.6,245.1,541,244.8,540.3z"/>
	<path class="st0" d="M237.7,521.3c0.4,1.1,0.8,2.2,1.1,3.2C238.5,523.5,238.1,522.4,237.7,521.3z"/>
	<path class="st3" d="M237.7,521.3c0.4,1.1,0.8,2.2,1.1,3.2C238.5,523.5,238.1,522.4,237.7,521.3z"/>
	<path class="st0" d="M241.1,530.8c0.3,0.9,0.6,1.7,1,2.6C241.8,532.5,241.5,531.7,241.1,530.8z"/>
	<path class="st3" d="M241.1,530.8c0.3,0.9,0.6,1.7,1,2.6C241.8,532.5,241.5,531.7,241.1,530.8z"/>
	<path class="st0" d="M239.4,526.1c0.3,1,0.7,1.9,1,2.9C240.1,528,239.7,527,239.4,526.1z"/>
	<path class="st3" d="M239.4,526.1c0.3,1,0.7,1.9,1,2.9C240.1,528,239.7,527,239.4,526.1z"/>
	<path class="st0" d="M242.9,535.5c0.3,0.8,0.6,1.6,0.9,2.3C243.5,537.1,243.2,536.3,242.9,535.5z"/>
	<path class="st3" d="M242.9,535.5c0.3,0.8,0.6,1.6,0.9,2.3C243.5,537.1,243.2,536.3,242.9,535.5z"/>
	<path class="st4" d="M428.9,363.9c-9.4-14.2-21.8-12.8-30-8.3c-7.1,4.4-11,12.4-11.7,21.2c-1.5,18.5,6.3,52.9,23.6,56.5
		c17.3,3.6,29.1-21.8,27.3-40.5C437.1,383.3,434.3,372.2,428.9,363.9z M406.1,422.2c-6.8-4.6-10.2-15.8-11.3-23.5
		c-1.3-8.9-2.1-16.2,1.2-24.6c3.2-8.3,14.1-10.5,18.8-4.9c7.1,8.4,8.5,15.8,10.8,30.1C427.6,412.8,419.9,431.6,406.1,422.2z"/>
	<path class="st4" d="M487.5,342c-7.3-7.6-12.7-16.1-12.1-25.5c0.9-12.2,8.1-24.5,15.9-33.7c9.2-10.7,17.9-22,12.5-34.3
		c0.6,0.2,1.1,0.4,1.7,0.6c-3.7-1.8-8-2.5-12.6-1.7c-66.7,12.1-134.9,37.6-189,79.3c-8,6.2-29.6,26.1-32.8,29.3
		c-14,14.5-23.9,31.3-30.6,49.5c24.1-24.2,67.9-44.9,111.2-55.5C397.8,338.8,447.8,336.2,487.5,342z"/>
	<path class="st4" d="M299.1,397c-7.2-5.8-11.2-5.9-14.4-4.6c-17.4,5.5-22.2,29.7-21.5,41c0.6,8.3,5.1,18.6,10.3,25.4
		c6.4,8.4,16,14.8,25.4,10.6c18.7-8.4,15.7-33.6,11.2-49.9C308.1,411.7,305.7,402.4,299.1,397z M306.7,452.1
		c-1.5,6.5-6.3,12.2-14.2,11c-6.2-1-10.8-9.8-13.5-15.5l0,0c-5.3-9.3-6.7-22.2-4.6-32.5c2.5-12.1,15.2-15.3,22-7.2
		c3.1,3.6,5.9,10.7,8.6,19.1C306.7,432.4,308.1,446.4,306.7,452.1z"/>
	<path class="st4" d="M518.1,279.2c1.7-4.5,1.7-9.4,0.4-13.9c0.3,1.1,0.5,2.4,0.7,3.7C519.7,273.2,519.2,275.7,518.1,279.2z"/>
	<path class="st4" d="M505.6,311.9c1.3-5,3-10,5-15.1c-1.9,4.2-3.4,8.2-4.2,11.6C506.2,309.5,505.9,310.7,505.6,311.9z"/>
	<path class="st4" d="M473.3,618.3c10.2-5.7,20.6-13.4,32.7-25.8c20-21.9,34.1-49.6,40.7-80.1c1.7-7.6,12.8-33.3,24.1-61.9
		c1.4-3.5,2.8-7.1,4.2-10.7c1.8-4.6,3.5-9.2,5.2-13.7c3.9-10.7,7.5-21.2,10.2-30.7c13.4-46.4,15-90.5,14.6-113.4l0,0
		c-0.5,0-1,0.1-1.5,0.1c-0.1,0-0.3,0-0.4,0c-0.4,0-0.7,0-1.1,0c-0.2,0-0.3,0-0.5,0c-0.4,0-0.7-0.1-1.1-0.1c-0.1,0-0.3,0-0.4,0
		c-0.5-0.1-1-0.1-1.5-0.2s-1-0.2-1.6-0.3c-0.1,0-0.1,0-0.2,0c-0.5-0.1-1.1-0.2-1.7-0.3c-0.1,0-0.1,0-0.2,0c-0.6-0.1-1.2-0.3-1.7-0.4
		H593c-0.6-0.2-1.2-0.4-1.8-0.6c-11.6,59.5-25.9,102.3-38.8,135.3c-1.5,3.8-2.9,7.4-4.3,10.9c-0.7,1.6-1.3,3.2-1.9,4.8
		c-0.1,0.6-0.3,1.1-0.6,1.5c0,0.1-0.1,0.2-0.1,0.3c-0.2,0.6-0.5,1.2-0.7,1.7c-0.1-0.4-0.2-0.7-0.3-1.1c-1.1,0.6-2.6,0.8-4.8,0.6
		c-0.8,0.4-14.2,1.9-23.8,3c-32.6,4.1-58.8,8.5-90,15.3c-19.6,4-77.4,20.9-89.7,25.1c-13.5,4.6-25.6,8.9-36.3,12.9
		c-32.6,12.1-52.8,21-63.7,26.4c0.4,1.3,0.9,2.5,1.3,3.8c0.1,0.3,0.2,0.7,0.3,1c0.4,1.1,0.8,2.2,1.1,3.2c0.2,0.5,0.4,1,0.5,1.5
		c0.3,1,0.7,1.9,1,2.9c0.2,0.6,0.5,1.2,0.7,1.9c0.3,0.9,0.6,1.7,1,2.6c0.3,0.7,0.6,1.4,0.8,2.2c0.3,0.8,0.6,1.6,0.9,2.3
		c0.3,0.8,0.7,1.6,1,2.4c0.3,0.7,0.6,1.4,0.8,2.1c0.4,0.9,0.8,1.9,1.2,2.8c0.2,0.5,0.5,1.1,0.7,1.6c0.6,1.5,1.3,2.9,2,4.4
		c0.3,1.1,0.6,2.1,1,3.2c7.1,13.4,15.9,25.6,26.4,36.1c9.5,9.5,20.2,18,31.7,25.3c22.1,13.9,47.3,23.3,73.1,26c0,0,0-0.1,0.1-0.1
		c9.9,1.2,20.1,1,30.7-0.1c4.3-0.5,8.6-1.2,12.9-2.2c3-0.7,5.8-2,8.7-2.2c1,5,3.2,19.7,5.7,35c0.4-0.1,0.8-0.1,1.1-0.2l0,0
		c1.4-0.2,2.7-0.4,4-0.6c0.5-0.1,1-0.2,1.5-0.2c1.5-0.3,3-0.5,4.5-0.8c0.5-0.1,1-0.2,1.5-0.3s1-0.2,1.6-0.3c2-0.4,4-0.8,6-1.3l0,0
		c0.3-0.1,0.7-0.1,1-0.2c4.1-0.9,8.2-2,12.2-3.1C473.4,644.7,473.4,624.7,473.3,618.3z M429.1,600.9c-44.5,16.4-89.9,7.9-119.1-11.5
		c-14-9.3-24.4-21.1-29.1-33.9c5.6-3.2,15.9-8.8,28.9-15.8c53.9-28.8,155.2-80.9,173.7-80.5C500.3,460.1,545.7,557.9,429.1,600.9z"
		/>
	<path class="st1" d="M412.5,641.4c-10.3,1.2-20.6,1.3-30.8,0.2c-6.6,12.3-8,14.9-13.3,26.5c-0.7,1.6-1.4,3.2-2.1,4.8
		c9.2,1.1,18.6,1.8,28.1,2c7.5-11.1,15.2-22.5,23-34.1C415.8,641.1,414.1,641.3,412.5,641.4z"/>
	<path class="st3" d="M412.5,641.4c-10.3,1.2-20.6,1.3-30.8,0.2c-6.6,12.3-8,14.9-13.3,26.5c-0.7,1.6-1.4,3.2-2.1,4.8
		c9.2,1.1,18.6,1.8,28.1,2c7.5-11.1,15.2-22.5,23-34.1C415.8,641.1,414.1,641.3,412.5,641.4z"/>
	<path class="st4" d="M412.5,641.4c-10.6,1.2-20.8,1.3-30.7,0.1c0,0,0,0.1-0.1,0.1C391.9,642.7,402.2,642.7,412.5,641.4z"/>
	<path class="st3" d="M412.5,641.4c-10.6,1.2-20.8,1.3-30.7,0.1c0,0,0,0.1-0.1,0.1C391.9,642.7,402.2,642.7,412.5,641.4z"/>
	<path class="st0" d="M502,341.8c0,1,0.1,1.9,0.3,2.9c0.3,0.1,0.7,0.2,1,0.4c-0.5-1.4-0.8-2.8-0.9-4.3c-0.8-9.7,1.2-19.4,3.3-28.9
		C503,321.6,501.7,331.2,502,341.8z"/>
	
		<linearGradient id="SVGID_1_" gradientUnits="userSpaceOnUse" x1="167.7162" y1="569.078" x2="165.5639" y2="482.583" gradientTransform="matrix(0.9857 -0.1682 -0.1682 -0.9857 424.0481 846.2074)">
		<stop  offset="0" style="stop-color:#D3802F"/>
		<stop  offset="1" style="stop-color:#F1B82C"/>
	</linearGradient>
	<path class="st5" d="M502,341.8c0,1,0.1,1.9,0.3,2.9c0.3,0.1,0.7,0.2,1,0.4c-0.5-1.4-0.8-2.8-0.9-4.3c-0.8-9.7,1.2-19.4,3.3-28.9
		C503,321.6,501.7,331.2,502,341.8z"/>
	<path class="st0" d="M510.6,296.7c2.2-5.1,4.9-10.6,7-16.1c0.2-0.5,0.3-1,0.5-1.5c-0.2,0.5-0.4,0.9-0.6,1.4
		C515,286.2,512.6,291.6,510.6,296.7z"/>
	
		<linearGradient id="SVGID_2_" gradientUnits="userSpaceOnUse" x1="183.7702" y1="568.6785" x2="181.618" y2="482.1835" gradientTransform="matrix(0.9857 -0.1682 -0.1682 -0.9857 424.0481 846.2074)">
		<stop  offset="0" style="stop-color:#D3802F"/>
		<stop  offset="1" style="stop-color:#F1B82C"/>
	</linearGradient>
	<path class="st6" d="M510.6,296.7c2.2-5.1,4.9-10.6,7-16.1c0.2-0.5,0.3-1,0.5-1.5c-0.2,0.5-0.4,0.9-0.6,1.4
		C515,286.2,512.6,291.6,510.6,296.7z"/>
	<path class="st0" d="M518.5,265.3c-0.9-3.6-2.3-6.2-4.6-9.3c-1.7-2.2-4.5-5.1-8.5-6.8C511.8,252.2,516.6,258.4,518.5,265.3z"/>
	
		<linearGradient id="SVGID_3_" gradientUnits="userSpaceOnUse" x1="185.7971" y1="568.6281" x2="183.6448" y2="482.1331" gradientTransform="matrix(0.9857 -0.1682 -0.1682 -0.9857 424.0481 846.2074)">
		<stop  offset="0" style="stop-color:#D3802F"/>
		<stop  offset="1" style="stop-color:#F1B82C"/>
	</linearGradient>
	<path class="st7" d="M518.5,265.3c-0.9-3.6-2.3-6.2-4.6-9.3c-1.7-2.2-4.5-5.1-8.5-6.8C511.8,252.2,516.6,258.4,518.5,265.3z"/>
	<path class="st4" d="M491.3,282.8c-7.9,9.1-15.1,21.4-15.9,33.7c-0.7,9.4,4.8,17.9,12.1,25.5c4.8,0.7,9.5,1.5,14,2.5
		c0.3,0.1,0.5,0.1,0.8,0.2c-0.1-1-0.2-1.9-0.3-2.9c-0.3-10.5,1-20.1,3.7-29.9c0.3-1.2,0.5-2.3,0.8-3.5c0.8-3.5,2.4-7.4,4.2-11.6
		c2-5.2,4.3-10.5,6.9-16.2c0.2-0.5,0.4-0.9,0.6-1.4c1.1-3.4,1.6-6,1.1-10.2c-0.2-1.4-0.4-2.6-0.7-3.7c-1.9-6.9-6.7-13-13.1-16.1
		c-0.5-0.2-1.1-0.4-1.7-0.6C509.2,260.8,500.5,272.2,491.3,282.8z"/>
	
		<linearGradient id="SVGID_4_" gradientUnits="userSpaceOnUse" x1="165.9944" y1="569.1208" x2="163.8421" y2="482.6258" gradientTransform="matrix(0.9857 -0.1682 -0.1682 -0.9857 424.0481 846.2074)">
		<stop  offset="0" style="stop-color:#D3802F"/>
		<stop  offset="1" style="stop-color:#F1B82C"/>
	</linearGradient>
	<path class="st8" d="M491.3,282.8c-7.9,9.1-15.1,21.4-15.9,33.7c-0.7,9.4,4.8,17.9,12.1,25.5c4.8,0.7,9.5,1.5,14,2.5
		c0.3,0.1,0.5,0.1,0.8,0.2c-0.1-1-0.2-1.9-0.3-2.9c-0.3-10.5,1-20.1,3.7-29.9c0.3-1.2,0.5-2.3,0.8-3.5c0.8-3.5,2.4-7.4,4.2-11.6
		c2-5.2,4.3-10.5,6.9-16.2c0.2-0.5,0.4-0.9,0.6-1.4c1.1-3.4,1.6-6,1.1-10.2c-0.2-1.4-0.4-2.6-0.7-3.7c-1.9-6.9-6.7-13-13.1-16.1
		c-0.5-0.2-1.1-0.4-1.7-0.6C509.2,260.8,500.5,272.2,491.3,282.8z"/>
	<path class="st9" d="M483.4,459.3c-18.5-0.3-119.8,51.7-173.7,80.5c-13,7-23.2,12.6-28.9,15.8c4.7,12.8,15,24.6,29.1,33.9
		c29.2,19.4,74.6,27.9,119.1,11.5C545.7,557.9,500.3,460.1,483.4,459.3z"/>
	<path class="st2" d="M534.5,397.5c-4.7-10.7-7.8-17.2-14.3-28.3c-4.3-7.4-6.2-10.4-10.9-18.4c-1.8-3.1-3.9-4.9-6-5.8
		c-0.3-0.2-0.7-0.3-1-0.4s-0.5-0.2-0.8-0.2c-4.5-0.9-9.2-1.8-14-2.5c-39.7-5.8-89.6-3.2-135.7,8.1c-43.4,10.6-87.2,31.3-111.2,55.5
		c-1,1-2,2.1-3,3.1c-0.1,0.1-3.9,6.3-6.2,15.2c-4.1,15.9-5.6,25.3-5.8,40.2c-0.2,11,0.1,24.6,3,35.2c2.1,7.8,4.3,18.2,7.2,17.3l0,0
		c-0.3-1.3-0.6-2.6-0.9-3.9c0.4,1.2,0.8,2.5,1.2,3.7l0,0c11-5.4,31.1-14.3,63.7-26.4c10.7-4,22.8-8.3,36.3-12.9
		c12.3-4.2,70.1-21.1,89.7-25.1c31.2-6.8,57.4-11.2,90-15.3c9.6-1.2,23-2.7,23.8-3c2.2,0.2,3.8,0,4.8-0.6c0.4-0.2,0.7-0.4,0.9-0.7
		c0,0,0.1,0,0.1,0.1c0-0.1,0.1-0.2,0.1-0.3c0.3-0.4,0.5-0.9,0.6-1.5c0.6-1.6,1.3-3.2,1.9-4.8c1.4-3.5,2.9-7.2,4.3-10.9
		c-3.9-0.8-7.6-1.3-11.1-1.3C539,407.9,536.3,401.8,534.5,397.5z M299,469.3c-9.5,4.2-19-2.2-25.4-10.6c-5.2-6.8-9.7-17-10.3-25.4
		c-0.8-11.2,4.1-35.5,21.5-41c3.2-1.2,7.2-1.2,14.4,4.6c6.6,5.3,8.9,14.7,11.1,22.4C314.8,435.7,317.7,461,299,469.3z M410.7,433.3
		c-17.3-3.6-25.1-38-23.6-56.5c0.7-8.8,4.6-16.8,11.7-21.2c8.2-4.6,20.7-6,30,8.3c5.5,8.3,8.2,19.4,9.1,29
		C439.8,411.6,428.1,436.9,410.7,433.3z"/>
	<path class="st0" d="M504.8,159.8c-5.3,3-8.8,8.1-10,14.5c-1.3,6.9,1.1,14.1,5.5,19.4c9.7,11.6,28.6,11.3,38.6,0.4
		c7.4-8.1,8.7-20.1,3.7-29.3c-7.4-4.5-14.9-8.6-22.7-12.4c-2.5,0.2-5,0.8-7.3,1.9C509.6,155.7,506.9,157.6,504.8,159.8z"/>
	<path class="st0" d="M542.8,165.3c-0.1-0.2-0.2-0.3-0.2-0.5c-7.4-4.5-14.9-8.6-22.7-12.4c-0.2,0-0.4,0-0.6,0.1
		C483.1,134.8,442.7,125,400,125c-151.9,0-275,123.1-275,275c0,66,23.3,126.6,62,174c0.3-1.1,0.6-2.3,1-3.4c0.1-0.2,0.1-0.4,0.2-0.5
		c0.3-1.1,0.7-2.2,1.1-3.3c0.4-1.1,0.8-2.2,1.2-3.2c0.1-0.2,0.2-0.5,0.3-0.7c0.4-1.1,0.9-2.1,1.3-3.1c8.5-18.8,21.6-30.8,43.9-42.4
		c0-0.2-0.1-0.4-0.1-0.5c-3,0.9-5.1-9.5-7.2-17.3c-2.9-10.6-3.1-24.2-3-35.2c0.2-15,1.7-24.3,5.8-40.2c2.3-9,6.1-15.1,6.2-15.2
		c1-1.1,2-2.1,3-3.1c6.7-18.2,16.6-35,30.6-49.5c3.1-3.2,24.7-23.1,32.8-29.3c54-41.7,122.2-67.2,188.9-79.3
		c4.5-0.8,8.8-0.1,12.6,1.7c3.9,1.7,6.8,4.6,8.5,6.8c2.3,3.1,3.7,5.7,4.6,9.3c1.3,4.5,1.3,9.4-0.4,13.9c-0.2,0.5-0.3,1-0.5,1.5
		c-2.1,5.5-4.8,11-7,16.1c-2,5.2-3.7,10.2-5,15.1c-2.1,9.5-4.1,19.1-3.3,28.9c0.1,1.5,0.5,2.9,0.9,4.3c2.1,0.9,4.2,2.7,6,5.8
		c4.7,8,6.6,11,10.9,18.4c6.5,11.1,9.6,17.6,14.3,28.3c1.9,4.2,4.5,10.4,6.9,16.3c3.5,0.1,7.3,0.5,11.1,1.3
		c12.8-33,27.2-75.8,38.8-135.3c-0.4-0.1-0.7-0.3-1.1-0.4c-0.1,0-0.2-0.1-0.2-0.1c-0.3-0.1-0.6-0.2-0.8-0.4
		c-0.1-0.1-0.2-0.1-0.3-0.2c-0.2-0.1-0.5-0.3-0.7-0.4c-0.1-0.1-0.2-0.1-0.3-0.2c-0.2-0.1-0.4-0.3-0.6-0.4c-0.1-0.1-0.2-0.2-0.3-0.3
		c-0.2-0.1-0.3-0.3-0.5-0.4c-0.1-0.1-0.2-0.2-0.3-0.3c-0.2-0.2-0.3-0.3-0.5-0.5c-0.1-0.1-0.2-0.2-0.3-0.3c-0.1-0.2-0.3-0.4-0.4-0.6
		c-0.1-0.1-0.1-0.2-0.2-0.3c-0.2-0.3-0.3-0.6-0.5-1c-0.6-1.6-0.6-3.2,0-4.6c0.4-1.6,1.2-2.9,2.3-4.1c0.1-0.7-7.9-4.1-11.8-4.6
		c-10.6-1.4-15.7-3.3-16.2-8.6c-0.5-5.8,6.5-7.2,12.4-8.1c3.3-0.5,10.6,0.8,13.3,1c-0.1-0.3,8.6,1.4,14.9,3.7c7-8,10.8-11.3,17-17
		c0.3-0.2,0.5-0.5,0.8-0.7C596.6,205.1,571.5,182.7,542.8,165.3z"/>
	<path class="st10" d="M214.6,591.6c0.1-0.2,0.2-0.4,0.3-0.5c0.3-0.7,0.7-1.4,1-2c0.2-0.4,0.4-0.7,0.6-1.1c0.3-0.6,0.6-1.2,0.9-1.8
		c0.3-0.5,0.5-1,0.8-1.4c0.3-0.5,0.5-1,0.8-1.5c0.3-0.6,0.7-1.2,1-1.8c0.2-0.4,0.4-0.8,0.6-1.2c0.6-1,1.1-2,1.7-3
		c4.5-7.7,10.2-14.2,17.3-19.7c3-2.4,6.2-4.2,9.5-5.9c0.5,0.9,1,1.8,1.5,2.8c-0.3-1.1-0.7-2.1-1-3.2c-0.7-1.5-1.3-2.9-2-4.4
		c-0.2-0.5-0.5-1.1-0.7-1.6c-0.4-0.9-0.8-1.9-1.2-2.8c-0.3-0.7-0.6-1.4-0.8-2.1c-0.3-0.8-0.7-1.6-1-2.4c-0.3-0.8-0.6-1.5-0.9-2.3
		c-0.3-0.7-0.6-1.4-0.8-2.2c-0.3-0.9-0.7-1.7-1-2.6c-0.2-0.6-0.5-1.2-0.7-1.9c-0.4-1-0.7-1.9-1-2.9c-0.2-0.5-0.4-1-0.5-1.5
		c-0.4-1.1-0.8-2.2-1.1-3.2c-0.1-0.3-0.2-0.7-0.3-1c-0.4-1.3-0.9-2.5-1.3-3.8c-0.4-1.2-0.8-2.5-1.2-3.7c0.3,1.3,0.6,2.6,0.9,3.9
		c0,0.2,0.1,0.4,0.1,0.5c-22.3,11.6-35.4,23.6-43.9,42.4c-0.5,1-0.9,2.1-1.3,3.1c-0.1,0.2-0.2,0.5-0.3,0.7c-0.4,1.1-0.8,2.1-1.2,3.2
		l0,0c-0.4,1.1-0.7,2.2-1.1,3.3c-0.1,0.2-0.1,0.4-0.2,0.5c-0.3,1.1-0.6,2.3-0.9,3.4l0,0c-3.2,13-3.1,26.6,0.6,39.1
		c0.4-0.1,0.8-0.2,1.2-0.3c5.3-1.6,12.5-1.6,17.8-0.8c1.3-4.2,2.7-8.3,4.3-12.3l0,0C212.1,597,213.3,594.3,214.6,591.6z"/>
	<path class="st2" d="M599.1,248.8c-6.3-2.3-15-4-14.9-3.7c-2.7-0.1-10-1.4-13.3-1c-5.8,0.8-12.9,2.3-12.4,8.1
		c0.5,5.2,5.6,7.2,16.2,8.6c3.9,0.5,11.9,3.9,11.8,4.6c-1.1,1.1-2,2.4-2.3,4.1c-0.6,1.3-0.6,3,0,4.6c0.1,0.3,0.3,0.7,0.5,1
		c0.1,0.1,0.1,0.2,0.2,0.3c0.1,0.2,0.3,0.4,0.4,0.6c0.1,0.1,0.2,0.2,0.3,0.3c0.1,0.2,0.3,0.3,0.5,0.5c0.1,0.1,0.2,0.2,0.3,0.3
		c0.2,0.2,0.3,0.3,0.5,0.4c0.1,0.1,0.2,0.2,0.3,0.3c0.2,0.1,0.4,0.3,0.6,0.4c0.1,0.1,0.2,0.1,0.3,0.2c0.2,0.1,0.5,0.3,0.7,0.4
		c0.1,0.1,0.2,0.1,0.3,0.2c0.3,0.1,0.5,0.3,0.8,0.4c0.1,0,0.2,0.1,0.2,0.1c0.4,0.2,0.7,0.3,1.1,0.4c0.6,0.2,1.2,0.4,1.8,0.6h0.1
		c0.6,0.2,1.2,0.3,1.7,0.4c0.1,0,0.1,0,0.2,0c0.6,0.1,1.1,0.2,1.7,0.3c0.1,0,0.1,0,0.2,0c0.5,0.1,1.1,0.2,1.6,0.3
		c0.5,0.1,1,0.2,1.5,0.2c0.1,0,0.3,0,0.4,0c0.4,0,0.7,0.1,1.1,0.1c0.2,0,0.3,0,0.5,0c0.4,0,0.8,0,1.1,0c0.1,0,0.3,0,0.4,0
		c0.5,0,1,0,1.5-0.1l0,0l0,0c0.1,0,0.2,0,0.4,0c0.3,0,0.5-0.1,0.8-0.1c0.1,0,0.3,0,0.4-0.1c0.2,0,0.5-0.1,0.7-0.1
		c0.1,0,0.2-0.1,0.4-0.1c0.4-0.1,0.7-0.2,1.1-0.3c3.9-0.4,7.5-2.1,9.4-5.1c2-3.3,1.5-7.4-0.9-10.3c0.4-0.1,0.8-0.2,1.2-0.4
		c0.1,0,0.2-0.1,0.3-0.1c0.4-0.1,0.8-0.2,1.2-0.4c0.2,0,0.3-0.1,0.5-0.1c0.4-0.1,0.8-0.2,1.2-0.3c0.3-0.1,0.5-0.1,0.8-0.2
		s0.5-0.1,0.8-0.2c0.5-0.1,1.1-0.3,1.7-0.4c0.1,0,0.3-0.1,0.4-0.1c1.3-0.3,2.6-0.6,4-0.9l0,0c2.4-0.5,5.1-1.1,7.9-1.6l0,0
		c6.5-1.2,14-2.3,22.1-3c10.5-1,13.3-7.1,9.5-10.9c-4.3-4.3-8.5-3-14.7-2.9c4.4-1.5,5.2-2,9.5-3.3c4.8-1.5,10.4-6.1,6.2-10
		c-5.7-5.2-21.2-0.1-27.6,1.9c-6.4,2-8.4,3-14.6,5.8c3.7,1.8,7.1,4.1,9.8,6.8c4.9-0.3,10-1.2,16.5-1.1c-5.4,0.9-9.1,1.5-12.1,1.9
		c-6,0.6-11.3,1.4-13.5,1.7c-10.5,1.7-15.4,2.4-21.4,9.5c2.1-6.7,7.4-9.2,14-10.1c5.5-0.7,9.2-1,14.2-1.5
		c-3.3-4.3-10.6-7.6-16.6-10.4c2.9,0.6,5.9,1.6,8.7,3c0.3-0.2,0.6-0.5,1-0.7c7.3-5.4,17.7-8.2,18.6-14.4c0.7-4.8-3.8-7.1-8.1-6.2
		c-6,1.3-16.4,9-22,14l0,0c-0.3,0.3-0.6,0.5-0.8,0.7C609.9,237.5,606.1,240.8,599.1,248.8z"/>
	<path class="st2" d="M205.8,641c-0.6,1.7-1.5,3-2.8,4.5c2.5-0.8,5.1-1.3,7.7-1.4c1,0,2.3,0,3.6,0.1
		C212.6,641.3,209.2,640.3,205.8,641z"/>
	<path class="st2" d="M188.8,612.9c-0.4,0.1-0.8,0.2-1.2,0.3c-3.7,1.2-6.8,5.7-6.2,9.6c0.5,3.7,3.7,5.9,6.5,7.9
		c-7.4,5.2-12.3,16.9-12,24.4c0.4,9.9,7.5,13.8,15.6,14.5c0.5,1.1,1.1,2.1,1.7,2.9c3.1,3.7,8.1,5.6,12.8,4.9c4.4-0.6,8-3.2,10.4-6.7
		h0.1l0.2-0.9c0,0,0.5-3.5,0.8-5c0.4-1.7,0.7-3.5,0.7-5.2c-1.7,1.5-3.5,2.7-4.8,3.6c-6.4,4.3-15.3,6.6-22,6.4c4.7-1.4,14.4-5,21-9.3
		c3.2-2.1,7.8-5.7,7.3-8.7c-0.6-3.2-3.4-4.3-6.7-4.8c-3.5-0.5-7.7,0.2-11.1,1.4c-4.3,1.5-13.6,5.1-13,4.8c6.1-3.3,11.7-8.5,13-10.8
		c1.8-3.2,1.7-6.6,0.9-10c-0.1-0.6,4,4.4,3.5,6.9c2.1-0.9,4.5-0.4,6.5,0.7c0.6-1.3,4.2-3.3,4.6-3.4c2.1-1,5.1-1.2,7.5-0.6
		c0.1-3.2,2.3-6.8,5.4-7c5.3-0.3,8.7,4.1,8.4,3.9c-1.8-1.2-4.7-1.9-7-1.4c-2.7,0.6-3.9,3.3-3.8,5.8c3.2,2.3,5,5.9,5.9,9.6
		c1.3,5,2.2,11.6,1.2,16.7c-0.8-6.5-1.3-9.4-3-14.5c-1.4-4.2-3.9-9.9-8.9-10.5c-3.4-0.4-5.3,1.2-7.7,3.2c0,0,1.6,3,1.6,3.2
		c3.2,0.8,6.2,2.4,6.7,5.6c0.3,2.4-1.2,4.8-3.2,7c0,2.5-0.5,4.8-1,7.2c-0.6,2.4-3,6.1-3.1,6.3c5,2.5,10.6,1.1,14.8-2.4
		c1.7-1.4,2.9-3,3.7-4.8c7.9-1.9,10.6-15.4,8.1-23.1c-4.5-13.9-16.5-16.7-28.4-14.5c0-2-0.1-4.9-0.5-6.9c-1.3-6.5-4.6-6.4-7.2-6.9
		c-0.1,0-0.3,0-0.4-0.1C201.3,611.2,194.1,611.3,188.8,612.9z"/>
	<path class="st1" d="M220.8,657.3c2-2.2,3.5-4.6,3.2-7c-0.4-3.1-3.4-4.8-6.7-5.6c0-0.2-1.6-3.1-1.6-3.2c2.4-2,4.3-3.6,7.7-3.2
		c5,0.6,7.5,6.3,8.9,10.5c1.7,5.1,2.2,8.1,3,14.5c1-5.1,0-11.7-1.2-16.7c-0.9-3.7-2.7-7.3-5.9-9.6c0-2.5,1.2-5.2,3.8-5.8
		c2.3-0.5,5.2,0.2,7,1.4c0.3,0.2-3.1-4.2-8.4-3.9c-3.2,0.2-5.4,3.8-5.4,7c-2.4-0.5-5.4-0.4-7.5,0.6c-0.4,0.1-4,2.1-4.6,3.4
		c-2-1.1-4.4-1.5-6.5-0.7c0.5-2.6-3.6-7.6-3.5-6.9c0.8,3.5,0.9,6.8-0.9,10c-1.3,2.3-6.8,7.5-13,10.8c-0.6,0.3,8.7-3.3,13-4.8
		c3.3-1.2,7.5-1.9,11.1-1.4c3.3,0.5,6.2,1.5,6.7,4.8c0.5,3-4.1,6.6-7.3,8.7c-6.6,4.3-16.3,8-21,9.3c6.6,0.2,15.5-2.1,22-6.4
		c1.2-0.8,3-2.1,4.8-3.6c0,1.7-0.3,3.5-0.7,5.2c-0.3,1.5-0.8,5-0.8,5l-0.2,0.9l0,0l0,0c0.1-0.1,2.6-3.8,3.1-6.3
		C220.3,662.1,220.8,659.8,220.8,657.3z M210.7,644.1c-2.6,0.1-5.2,0.6-7.7,1.4c1.3-1.4,2.2-2.7,2.8-4.5c3.4-0.7,6.8,0.3,8.5,3.2
		C212.9,644.1,211.7,644,210.7,644.1z"/>
	<path class="st11" d="M296.4,407.9c-6.8-8-19.5-4.8-22,7.2c-2.2,10.3-0.7,23.2,4.6,32.5l0,0c2.8,5.6,7.3,14.4,13.5,15.5
		c7.9,1.3,12.6-4.4,14.2-11c1.4-5.7,0-19.8-1.7-25.2C302.3,418.6,299.5,411.5,296.4,407.9z M295.3,417.5L295.3,417.5
		c-0.1,0.5-0.2,0.9-0.4,1.2c-0.1,0.3-0.2,0.6-0.3,0.8c-0.3,0.6-0.6,1-1,1.5c-0.6,0.8-1.4,1.4-2.2,1.7c-2.1,0.9-5,0.5-6.5-1.3
		c-2.7-2.3-3.6-6.6-1.9-9.7c1.3-2.3,3.6-3.7,6.3-3.4c2.1,0.2,4,1.4,5.1,3.3C295.5,413.2,295.8,415.5,295.3,417.5z"/>
	<path class="st11" d="M414.7,369.3c-4.7-5.5-15.6-3.3-18.8,4.9c-3.3,8.4-2.5,15.6-1.2,24.6c1.1,7.7,4.5,18.9,11.3,23.5
		c13.9,9.4,21.6-9.4,19.4-22.8C423.2,385.1,421.8,377.7,414.7,369.3z M414.9,380.9c-0.3,2.2-1.2,3.6-2.9,4.6
		c-1.2,0.7-3.3,0.9-4.7,0.4c-2-0.7-3.2-2.5-3.5-4.5c-0.4-2.6,0.1-5.8,2.2-7.2c1.9-1.8,4.4-2,6.6-0.4
		C414.3,374.9,415.1,378.8,414.9,380.9z"/>
	<path class="st9" d="M289.3,408.2c-2.7-0.3-5,1.1-6.3,3.4c-1.8,3.1-0.8,7.5,1.9,9.7c1.5,1.8,4.4,2.2,6.5,1.3c0.9-0.4,1.7-1,2.2-1.7
		c0.4-0.4,0.8-0.9,1-1.5c0.1-0.3,0.2-0.5,0.3-0.8c0.2-0.4,0.3-0.7,0.4-1.1v-0.1c0.5-2,0.2-4.2-0.9-6
		C293.2,409.7,291.4,408.5,289.3,408.2z"/>
	<path class="st9" d="M412.6,373.7c-2.2-1.6-4.7-1.4-6.6,0.4c-2.2,1.5-2.7,4.6-2.2,7.2c0.3,2,1.5,3.8,3.5,4.5
		c1.4,0.5,3.5,0.3,4.7-0.4c1.7-0.9,2.6-2.4,2.9-4.6C415.1,378.8,414.3,374.9,412.6,373.7z"/>
	<path class="st1" d="M618.7,235.3c5.9,2.8,13.2,6.1,16.6,10.4c-5,0.5-8.7,0.8-14.2,1.5c-6.7,0.9-12,3.4-14,10.1
		c6-7.1,10.9-7.8,21.4-9.5c2.2-0.4,7.5-1.1,13.5-1.7c3-0.3,6.7-1,12.1-1.9c-6.5,0-11.6,0.8-16.5,1.1c-2.7-2.7-6.2-5.1-9.8-6.8
		c-0.1,0-0.2-0.1-0.3-0.1C624.6,237,621.6,235.9,618.7,235.3z"/>
</g>
</svg>
