<?xml version="1.0" encoding="UTF-8"?><!DOCTYPE svg PUBLIC "-//W3C//DTD SVG 1.1//EN" "http://www.w3.org/Graphics/SVG/1.1/DTD/svg11.dtd"><svg xmlns="http://www.w3.org/2000/svg" xmlns:xlink="http://www.w3.org/1999/xlink"><defs>
			<filter id="Adobe_OpacityMaskFilter" filterUnits="userSpaceOnUse" x="51.3" y="51.9" width="9.2" height="16.1">
				<feColorMatrix type="matrix" values="1 0 0 0 0  0 1 0 0 0  0 0 1 0 0  0 0 0 1 0"/>
			</filter>
		
		<filter id="Adobe_OpacityMaskFilter" filterUnits="userSpaceOnUse">
			<feColorMatrix type="matrix" values="1 0 0 0 0  0 1 0 0 0  0 0 1 0 0  0 0 0 1 0"/>
		</filter>
	
    <polygon id="infos-a" points="0 .054 8.981 .054 8.981 14 0 14"/>
  
			<filter id="Adobe_OpacityMaskFilter" filterUnits="userSpaceOnUse" x="0.2" y="0.7" width="10.2" height="11.3">
				<feColorMatrix type="matrix" values="1 0 0 0 0  0 1 0 0 0  0 0 1 0 0  0 0 0 1 0"/>
			</filter>
		
			<filter id="Adobe_OpacityMaskFilter" filterUnits="userSpaceOnUse" x="0.2" y="0.7" width="10.2" height="11.3">
				<feColorMatrix type="matrix" values="1 0 0 0 0  0 1 0 0 0  0 0 1 0 0  0 0 0 1 0"/>
			</filter>
		
			<filter id="Adobe_OpacityMaskFilter" filterUnits="userSpaceOnUse" x="0.2" y="0.7" width="10.2" height="11.3">
				<feColorMatrix type="matrix" values="1 0 0 0 0  0 1 0 0 0  0 0 1 0 0  0 0 0 1 0"/>
			</filter>
		</defs><symbol id="arrow-down" viewBox="0 0 11 12">
<polygon points="11,6.3 10,5.4 6.2,9.4 6.2,0 4.8,0 4.8,9.4 1,5.4 0,6.3 5.5,12 "/>
</symbol><symbol id="arrow-left" viewBox="0 0 12 11">
<polygon points="5.7,11 6.6,10 2.6,6.2 12,6.2 12,4.8 2.6,4.8 6.6,1 5.7,0 0,5.5 "/>
</symbol><symbol id="arrow-long-right" viewBox="0 0 62 18">
  <polygon points="529.227 31 527.711 32.611 534.54 38.897 477 38.897 477 41.098 534.544 41.098 527.711 47.389 529.227 49 539 40.002" transform="translate(-477 -31)"/>
</symbol><symbol id="arrow-right" viewBox="0 0 12 11">
<polygon points="6.3,0 5.4,1 9.4,4.8 0,4.8 0,6.2 9.4,6.2 5.4,10 6.3,11 12,5.5 "/>
</symbol><symbol id="arrow-small-left" viewBox="0 0 8.3 14.3">
<polygon class="st0" points="7.1,14.3 0,7.1 7.1,0 8.3,1.2 2.3,7.1 8.3,13.1 "/>
</symbol><symbol id="arrow-small-right" viewBox="0 0 8.3 14.3">
<polygon points="1.2,0 8.3,7.2 1.2,14.3 0,13.1 6,7.2 0,1.2 "/>
</symbol><symbol id="audio" viewBox="0 0 129 128">
<style type="text/css">
	.st0{fill-rule:evenodd;clip-rule:evenodd;fill:#212529;}
	.st1{filter:url(#Adobe_OpacityMaskFilter);}
	.st2{fill-rule:evenodd;clip-rule:evenodd;fill:#FFFFFF;}
	.st3{mask:url(#audio-b_2_);fill-rule:evenodd;clip-rule:evenodd;fill:#212529;}
</style>
<g>
	<path class="st0" d="M64.8,73.3L56.8,68c-0.2-0.1-0.4-0.2-0.6-0.2h-3.5v-7.6h3.4c0.2,0,0.4-0.1,0.6-0.2l8.1-5.4L64.8,73.3
		L64.8,73.3z M66.5,51.6c-0.4-0.2-0.8-0.2-1.1,0L55.8,58h-4.2c-0.6,0-1.1,0.5-1.1,1.1v9.8c0,0.6,0.5,1.1,1.1,1.1h4.2l9.5,6.3
		c0.2,0.1,0.4,0.2,0.6,0.2c0.2,0,0.4,0,0.5-0.1c0.4-0.2,0.6-0.6,0.6-1V52.6C67,52.2,66.8,51.8,66.5,51.6L66.5,51.6z M70.5,65.6
		c-0.6,0-1.1,0.5-1.1,1.1s0.5,1.1,1.1,1.1c2.1,0,3.8-1.7,3.8-3.8c0-2.1-1.7-3.8-3.8-3.8c-0.6,0-1.1,0.5-1.1,1.1
		c0,0.6,0.5,1.1,1.1,1.1c0.9,0,1.6,0.7,1.6,1.6C72,64.9,71.3,65.6,70.5,65.6"/>
	<g transform="translate(18 4.03)">
		
		<mask maskUnits="userSpaceOnUse" x="51.3" y="51.9" width="9.2" height="16.1" id="audio-b_2_">
			<g class="st1">
				<polygon id="audio-a_2_" class="st2" points="51.3,51.9 60.5,51.9 60.5,68 51.3,68 				"/>
			</g>
		</mask>
		<path class="st3" d="M52.5,51.9c-0.6,0-1.1,0.5-1.1,1.1c0,0.6,0.5,1.1,1.1,1.1c3.2,0,5.8,2.6,5.8,5.8c0,3.2-2.6,5.8-5.8,5.8
			c-0.6,0-1.1,0.5-1.1,1.1c0,0.6,0.5,1.1,1.1,1.1c4.4,0,8-3.6,8-8C60.5,55.5,56.9,51.9,52.5,51.9"/>
	</g>
</g>
</symbol><symbol id="baking" viewBox="0 0 20 18">
<g id="Page-1">
	<g id="_x31_440_x5F_Siropcool_x5F_Recettes-Liste" transform="translate(-1121.000000, -1296.000000)">
		<g id="tile-recette-copy-2" transform="translate(911.000000, 949.000000)">
			<g id="Group-9" transform="translate(211.000000, 348.000000)">
				<path d="M18,15.9H0c-0.3,0-0.6-0.3-0.6-0.6s0.3-0.6,0.6-0.6h18c0.3,0,0.6,0.3,0.6,0.6S18.3,15.9,18,15.9z"/>
				<path d="M1.2,11.7c-0.3,0-0.6-0.3-0.6-0.6c0-1.3,1.1-1.9,2.1-2.4C3.5,8.2,4,7.9,4,7.4c0-0.5-0.5-0.8-1.4-1.3
					C1.7,5.6,0.6,5,0.6,3.7s1.1-1.9,2.1-2.4C3.5,0.8,4,0.5,4,0c0-0.3,0.3-0.6,0.6-0.6S5.3-0.3,5.3,0c0,1.3-1.1,1.9-2.1,2.4
					C2.3,2.9,1.8,3.2,1.8,3.7c0,0.5,0.5,0.8,1.4,1.3c0.9,0.5,2.1,1.1,2.1,2.4c0,1.3-1.1,1.9-2.1,2.4c-0.9,0.5-1.4,0.8-1.4,1.3
					C1.8,11.4,1.5,11.7,1.2,11.7z"/>
				<path d="M6.9,11.7c-0.3,0-0.6-0.3-0.6-0.6c0-1.3,1.1-1.9,2.1-2.4c0.9-0.5,1.4-0.8,1.4-1.3c0-0.5-0.5-0.8-1.4-1.3
					C7.4,5.6,6.3,5,6.3,3.7s1.1-1.9,2.1-2.4C9.2,0.8,9.8,0.5,9.8,0c0-0.3,0.3-0.6,0.6-0.6S11-0.3,11,0c0,1.3-1.1,1.9-2.1,2.4
					C8.1,2.9,7.5,3.2,7.5,3.7c0,0.5,0.5,0.8,1.4,1.3C9.9,5.5,11,6.1,11,7.4c0,1.3-1.1,1.9-2.1,2.4c-0.9,0.5-1.4,0.8-1.4,1.3
					C7.5,11.4,7.3,11.7,6.9,11.7z"/>
				<path d="M13.4,11.7c-0.3,0-0.6-0.3-0.6-0.6c0-1.3,1.1-1.9,2.1-2.4c0.9-0.5,1.4-0.8,1.4-1.3c0-0.5-0.5-0.8-1.4-1.3
					c-0.9-0.5-2.1-1.1-2.1-2.4s1.1-1.9,2.1-2.4c0.9-0.5,1.4-0.8,1.4-1.3c0-0.3,0.3-0.6,0.6-0.6s0.6,0.3,0.6,0.6
					c0,1.3-1.1,1.9-2.1,2.4C14.5,2.9,14,3.2,14,3.7c0,0.5,0.5,0.8,1.4,1.3c0.9,0.5,2.1,1.1,2.1,2.4c0,1.3-1.1,1.9-2.1,2.4
					c-0.9,0.5-1.4,0.8-1.4,1.3C14,11.4,13.7,11.7,13.4,11.7z"/>
			</g>
		</g>
	</g>
</g>
</symbol><symbol id="check" viewBox="0 0 19.9 18.6">
<style type="text/css">
	.st0{fill:#02AE90;}
</style>
<path class="st0" d="M5,18.6c0,0-0.1,0-0.1,0c-0.5,0-0.9-0.3-1.2-0.7l-3.5-5.4c-0.5-0.7-0.3-1.6,0.4-2.1c0.7-0.5,1.6-0.3,2.1,0.4
	l2.4,3.7L17.3,0.5c0.5-0.6,1.5-0.7,2.1-0.2c0.6,0.5,0.7,1.5,0.2,2.1L6.1,18.1C5.9,18.4,5.4,18.6,5,18.6z"/>
</symbol><symbol id="circle-button-next" viewBox="0 0 129 128">
<polygon points="65.2,52 63.2,54.2 71.9,62.5 51.4,62.5 51.4,65.5 71.9,65.5 63.2,73.8 65.2,76 77.6,64 "/>
</symbol><symbol id="circle-button-prev" viewBox="0 0 129 128">
<polygon points="63.8,76 65.8,73.8 57.1,65.5 77.6,65.5 77.6,62.5 57.1,62.5 65.8,54.2 63.8,52 51.4,64 "/>
</symbol><symbol id="clock" viewBox="0 0 16 16">
    <title>Group 5</title>
    <g id="Page-1" stroke="none" stroke-width="1" fill="none" fill-rule="evenodd">
        <g id="1440_Siropcool_Recettes-Liste" transform="translate(-325.000000, -1294.000000)" fill="#000000">
            <g id="tile-recette" transform="translate(192.000000, 949.000000)">
                <g id="Group-5" transform="translate(133.000000, 345.000000)">
                    <path d="M8,14.6666667 C4.32666667,14.6666667 1.33333333,11.6733333 1.33333333,8 C1.33333333,4.32666667 4.32666667,1.33333333 8,1.33333333 C11.6733333,1.33333333 14.6666667,4.32666667 14.6666667,8 C14.6666667,11.6733333 11.6733333,14.6666667 8,14.6666667 M8,0 C3.58666667,0 0,3.58666667 0,8 C0,12.4133333 3.58666667,16 8,16 C12.4133333,16 16,12.4133333 16,8 C16,3.58666667 12.4133333,0 8,0" id="Fill-1"/>
                    <path d="M8.22788606,7.53662338 L8.22788606,4.05194805 C8.22788606,3.70909091 7.91946884,3.42857143 7.54251446,3.42857143 C7.16556008,3.42857143 6.85714286,3.70909091 6.85714286,4.05194805 L6.85714286,7.79220779 C6.85714286,7.96051948 6.93253373,8.11636364 7.05590062,8.23480519 L9.11201542,10.1049351 C9.24908974,10.2233766 9.42043264,10.2857143 9.59862926,10.2857143 C9.77682587,10.2857143 9.94816877,10.2233766 10.0852431,10.1049351 C10.352538,9.86181818 10.352538,9.46909091 10.0852431,9.22597403 L8.22788606,7.53662338 Z" id="Fill-3"/>
                </g>
            </g>
        </g>
    </g>
</symbol><symbol id="close" viewBox="0 0 21.9 22.8">

<g>
	<path class="st0" d="M20.4,22.8c-0.4,0-0.8-0.2-1.1-0.5L0.4,2.5c-0.6-0.6-0.5-1.5,0-2.1c0.6-0.6,1.5-0.6,2.1,0l18.9,19.8
		c0.6,0.6,0.5,1.5,0,2.1C21.1,22.7,20.8,22.8,20.4,22.8z"/>
	<path class="st0" d="M1.5,22.8c-0.4,0-0.7-0.1-1-0.4c-0.6-0.6-0.6-1.5,0-2.1L19.3,0.5c0.6-0.6,1.5-0.6,2.1,0c0.6,0.6,0.6,1.5,0,2.1
		L2.6,22.3C2.3,22.6,1.9,22.8,1.5,22.8z"/>
</g>
</symbol><symbol id="copy" viewBox="0 0 71.7 90">
<g>
    <path d="M54,10.8V7.3h-7.8c-0.9-2.5-2.7-4.6-4.9-5.9c-1.7-1-3.5-1.4-5.6-1.4c-2,0-3.9,0.6-5.6,1.6c-2.2,1.3-3.8,3.3-4.7,5.7h-7.8
        v3.5H0V90h71.7V10.8H54z M54,22.4v-3.5h9.7V82H8V18.8h9.7v3.5H54z"/>
    <polygon points="9.7,50.2 24.7,70.2 62,37 56.7,31 25.9,58.5 16.1,45.4   "/>
</g>
</symbol><symbol id="download" viewBox="0 0 18 26">
  <g fill="none" fill-rule="evenodd" transform="matrix(-1 0 0 1 18 .185)">
    <polygon fill="#2A2B2A" points="9.627 1.54 8.254 3.056 14.44 8.972 0 8.972 0 11.044 14.444 11.044 8.254 16.964 9.627 18.48 18.48 10.012" transform="rotate(90 9.24 10.01)"/>
    <line x1=".77" x2="17.71" y1="23.87" y2="23.87" stroke="#212529" stroke-width="2.31"/>
  </g>
</symbol><symbol id="drop-1" viewBox="0 0 47.4 46.6">
<style type="text/css">
	.st0{filter:url(#Adobe_OpacityMaskFilter);}
	.st1{fill-rule:evenodd;clip-rule:evenodd;fill:#FFFFFF;}
	.st2{mask:url(#drop-1-b_1_);fill-rule:evenodd;clip-rule:evenodd;fill:#F1B82C;}
</style>
<g transform="rotate(148 27.066 29.79)">
	
	<mask maskUnits="userSpaceOnUse" id="drop-1-b_1_">
		<g class="st0">
			<polygon id="drop-1-a_1_" class="st1" points="2.5,14.1 49.5,14.1 49.5,60.3 2.5,60.3 			"/>
		</g>
	</mask>
	<path class="st2" d="M49.3,34.8c-1.6-9.1-8.1-19.9-18.4-19.9c-1.1-0.1-6.4-2-11.8,0.3c-6.8,2.9-13.5,8.7-15.9,15.1
		c-3,7.7,3.7,13.1,6.5,19.2c-0.8,9.6,19.6,14.1,29.6,7.8C50.3,50.6,49.8,36.6,49.3,34.8"/>
</g>
</symbol><symbol id="facebook" viewBox="-703 345 512 512">
<path id="facebook-icon" d="M-498.9,529.7h-43.1v70.4h43.1V807h83V599.2h57.9l6.2-69.5h-64c0,0,0-26,0-39.6
	c0-16.4,3.3-22.9,19.1-22.9c12.8,0,44.9,0,44.9,0V395c0,0-47.3,0-57.4,0c-61.7,0-89.6,27.2-89.6,79.2
	C-498.9,519.6-498.9,529.7-498.9,529.7z"/>
</symbol><symbol id="fact" viewBox="0 0 50.4 50.4">
<style type="text/css">
	.st0{fill:#231F20;}
</style>
<g>
	<g>
		<path class="st0" d="M25.2,50.4C11.3,50.4,0,39.1,0,25.2S11.3,0,25.2,0s25.2,11.3,25.2,25.2S39.1,50.4,25.2,50.4z M25.2,1.9
			C12.4,1.9,1.9,12.3,1.9,25.2s10.5,23.3,23.3,23.3S48.5,38,48.5,25.2S38,1.9,25.2,1.9z"/>
	</g>
	<path class="st0" d="M29.2,14c-2.1-1.2-4.6-1.4-6.9-0.8c-2.3,0.7-4.3,2.2-5.4,4.3c-0.6,1.1-1,2.2-1.1,3.4c0,0.3,0,0.6,0,0.9
		s0,0.6,0,0.9c0.3,3,2,5.6,4.6,7.1c0.5,0.8,0.8,1.7,0.9,2.6v3.8c0,0.4,0.4,0.8,0.8,0.8h1.3v0.7c0,0.4,0.4,0.8,0.8,0.8h2
		c0.4,0,0.8-0.4,0.8-0.8V37h1.4c0.4,0,0.8-0.4,0.8-0.8v-4c0-0.3,0-0.5,0-0.7c0.1-0.7,0.3-1.4,0.6-2c1.2-0.8,2.2-1.9,2.9-3.2
		C35.2,22,33.6,16.5,29.2,14z M27.6,35.5h-4.7v-2.1h4.7V35.5z M24.4,21.9v0.2h-0.3l0.1-0.1C24.2,22,24.3,21.9,24.4,21.9z M28.8,28.3
		c-0.2,0.1-0.3,0.2-0.3,0.4c-0.5,1-0.8,2-0.9,3.1H26v-8.1c0.9,0,1.2,0,1.2,0c0.2,0,0.4-0.1,0.6-0.2s0.2-0.4,0.2-0.6
		c0-0.4-0.4-0.8-0.8-0.8H26v-0.6c0-0.2-0.1-0.3-0.2-0.5c-0.3-0.4-0.8-0.7-1.3-0.7c-0.6,0-1.2,0.2-1.5,0.7c-0.3,0.3-1.3,1.3-0.9,2.2
		c0.2,0.5,0.8,0.7,1.2,0.7h1v8h-1.6c-0.2-1.1-0.6-2.1-1.2-3c-0.1-0.1-0.2-0.2-0.3-0.2c-1.1-0.6-2.1-1.5-2.8-2.6
		c-1.1-1.7-1.4-3.7-0.9-5.6c0.4-1.9,1.6-3.6,3.3-4.6c1.7-1.1,3.7-1.4,5.6-0.9c1.9,0.4,3.6,1.6,4.6,3.3c0.4,0.6,0.7,1.3,0.9,2.1
		c0.1,0.5,0.2,0.9,0.2,1.4c0.1,1-0.1,1.9-0.4,2.8c-0.2,0.5-0.3,0.9-0.6,1.3C30.7,26.7,29.8,27.7,28.8,28.3z"/>
</g>
</symbol><symbol id="info" viewBox="0 0 125.7 125.7">
<path d="M62.8,125.7C28.2,125.7,0,97.5,0,62.8S28.2,0,62.8,0c34.6,0,62.8,28.2,62.8,62.8S97.5,125.7,62.8,125.7z M62.8,10
    C33.7,10,10,33.7,10,62.8c0,29.1,23.7,52.8,52.8,52.8c29.1,0,52.8-23.7,52.8-52.8C115.7,33.7,92,10,62.8,10z"/>
<path d="M77.6,89.6l-1,4c-3,1.2-5.3,2.1-7.1,2.7c-1.8,0.6-3.8,0.9-6.2,0.9c-3.6,0-6.4-0.9-8.4-2.6c-2-1.8-3-4-3-6.7
    c0-1,0.1-2.1,0.2-3.2c0.2-1.1,0.4-2.3,0.7-3.7l3.7-13.1c0.3-1.3,0.6-2.5,0.8-3.6c0.2-1.1,0.3-2.2,0.3-3.1c0-1.7-0.3-2.9-1-3.5
    c-0.7-0.7-2-1-4-1c-1,0-1.9,0.2-3,0.5c-1,0.3-1.9,0.6-2.6,0.9l1-4.1c2.4-1,4.8-1.8,7-2.5c2.2-0.7,4.3-1.1,6.3-1.1
    c3.6,0,6.3,0.9,8.3,2.6c1.9,1.7,2.9,4,2.9,6.7c0,0.6-0.1,1.6-0.2,3c-0.1,1.4-0.4,2.8-0.7,4L68,79.8c-0.3,1.1-0.6,2.3-0.8,3.6
    c-0.2,1.3-0.4,2.4-0.4,3.1c0,1.7,0.4,2.9,1.2,3.6c0.8,0.6,2.1,0.9,4,0.9c0.9,0,1.9-0.2,3.1-0.5C76.2,90.1,77,89.9,77.6,89.6z
     M78.5,34.7c0,2.3-0.9,4.2-2.6,5.8c-1.7,1.6-3.8,2.4-6.2,2.4c-2.4,0-4.5-0.8-6.3-2.4c-1.7-1.6-2.6-3.5-2.6-5.8
    c0-2.3,0.9-4.2,2.6-5.8c1.7-1.6,3.8-2.4,6.3-2.4c2.4,0,4.5,0.8,6.2,2.4C77.6,30.4,78.5,32.4,78.5,34.7z"/>
</symbol><symbol id="infos" viewBox="0 0 48 48">
  
  <g fill="none" fill-rule="evenodd" transform="translate(2 2)">
    <g transform="translate(17 11)">
      <g transform="translate(0 8)">
        <mask id="infos-b" fill="#fff">
          <use xlink:href="#infos-a"/>
        </mask>
        <path fill="#212529" d="M6.103476,10.8826516 C6.045396,11.0740226 6.016236,11.2655065 6.016236,11.4295548 C6.016236,11.9764581 6.306996,12.3045548 6.888276,12.3045548 C7.178916,12.3045548 7.527636,12.2499097 7.934556,12.0858613 L7.934556,12.1405065 C6.597636,13.5898452 4.999116,14.0000226 3.574956,14.0000226 C1.046316,14.0000226 3.6e-05,12.6054419 3.6e-05,10.9099742 C3.6e-05,10.5271194 0.058116,10.1169419 0.145356,9.70676452 L1.889196,3.11649032 C2.121636,2.18673226 2.295996,1.63982903 2.295996,1.22965161 C2.295996,0.764829032 2.092596,0.491377419 1.627596,0.108522581 L1.627596,0.0537645161 L8.980956,0.0537645161 L6.103476,10.8826516 Z" mask="url(#infos-b)"/>
      </g>
      <path fill="#212529" d="M6.68418384,0 C8.64910724,0 10,1.23222679 10,2.83936372 C10,4.58042873 8.3727681,6 6.31581616,6 C4.35089276,6 3,4.7678838 3,3.16074687 C3,1.39291836 4.62710514,0 6.68418384,0"/>
    </g>
    <circle cx="22" cy="22" r="22" stroke="#212529" stroke-width="2.5"/>
  </g>
</symbol><symbol id="linkedin" viewBox="0 0 20 18.3">
<g>
	<g>
		<g>
			<path d="M3.9,17.6c0,0.4-0.3,0.6-0.6,0.6H0.6C0.3,18.3,0,18,0,17.6V6.3c0-0.4,0.3-0.6,0.6-0.6h2.6c0.4,0,0.6,0.3,0.6,0.6V17.6z
				 M3.9,3c0,0.4-0.3,0.6-0.6,0.6H0.6C0.3,3.6,0,3.3,0,3V0.6C0,0.3,0.3,0,0.6,0h2.6c0.4,0,0.6,0.3,0.6,0.6V3z M20,17.6
				c0,0.4-0.3,0.6-0.6,0.6h-2.6c-0.4,0-0.6-0.3-0.6-0.6v-4.8c0-1.6-0.1-2.6-0.2-3.1c-0.2-0.5-0.4-0.8-0.8-1.1
				c-0.4-0.3-0.8-0.4-1.4-0.4c-0.7,0-1.3,0.2-1.8,0.6s-0.9,0.9-1.1,1.5c-0.2,0.6-0.3,1.7-0.3,3.4v4c0,0.4-0.3,0.6-0.6,0.6H7.2
				c-0.4,0-0.6-0.3-0.6-0.6V6.3c0-0.4,0.3-0.6,0.6-0.6h2.3c0.4,0,0.6,0.3,0.6,0.6v0.9c0,0.4,0.2,0.4,0.4,0.2c1.2-1.3,2.7-2,4.4-2
				c0.9,0,1.6,0.2,2.4,0.5s1.3,0.7,1.6,1.2s0.6,1,0.8,1.6S20,10,20,11.2L20,17.6L20,17.6z"/>
		</g>
	</g>
</g>
</symbol><symbol id="logo-jeunesse" viewBox="0 0 26.1 26.1">
<g>
	<path class="st0" d="M24.7,7.2C24.7,7.2,24.7,7.2,24.7,7.2C23,3.8,20,1.4,16.4,0.4l0,0l-0.7-0.1c0,0,0,0,0,0l-0.3-0.1l0,0
		c0,0,0,0,0,0l0,0l-0.1,0C14.4,0.1,13.7,0,13,0C8.6,0,4.6,2.2,2.1,5.9L1.7,6.5l0,0C0.6,8.5,0,10.7,0,13c0,7.2,5.9,13,13,13
		s13-5.9,13-13C26.1,11,25.6,9,24.7,7.2z M23.2,6.7c-3-0.8-5.6-2.6-7.2-5.3C19,2.1,21.6,4.1,23.2,6.7z M13,1c0.5,0,1,0,1.6,0.1
		c-2.3,3-5.8,4.8-9.6,4.8c-0.5,0-1,0-1.5-0.1c-0.1,0-0.1,0-0.2,0C5.7,2.8,9.3,1,13,1z M13,25.1c-6.6,0-12-5.4-12-12
		c0-2.2,0.6-4.4,1.8-6.3c0.2,0,0.4,0.1,0.6,0.1c0.1,0,0.3,0,0.4,0.1c0.4,0,0.8,0.1,1.2,0.1c3.9,0,7.7-1.8,10.1-4.9l0,0l0,0
		c2,3.1,5.1,5.1,8.7,5.8c0.8,1.6,1.2,3.4,1.2,5.2C25.1,19.7,19.7,25.1,13,25.1z"/>
	<path class="st0" d="M7.5,10.5C7.7,10.5,8,10.3,8,10c0-0.6,0.4-1,1-1s1,0.4,1,1c0,0.3,0.2,0.5,0.5,0.5S11,10.3,11,10
		c0-1.1-0.9-2-2-2c-1.1,0-2,0.9-2,2C7,10.3,7.2,10.5,7.5,10.5z"/>
	<path class="st0" d="M23,13.7c-0.2-0.1-0.5-0.1-0.7,0.2c-0.1,0.2-0.4,0.4-0.6,0.5c-0.3,0.1-0.5,0-0.8-0.1c-0.3-0.2-0.5-0.5-0.5-0.9
		c0-0.2,0-0.4,0.1-0.5c0-0.1,0.1-0.2,0.1-0.3c0-0.2-0.1-0.3-0.2-0.4c-0.2-0.1-0.5-0.1-0.7,0.2c-0.5,0.8-0.4,1.7,0.2,2.4c0,0,0,0,0,0
		c-0.7,3.1-3.5,5.3-6.7,5.3c-3.2,0-6-2.2-6.7-5.3c0,0,0,0,0,0c0.2-0.2,0.4-0.5,0.4-0.8C7,13.7,7,13.5,7,13.3c0-0.4-0.1-0.7-0.3-1
		C6.6,12.1,6.3,12,6,12.1c-0.2,0.1-0.2,0.3-0.2,0.4c0,0.1,0,0.2,0.1,0.3C6,13,6,13.2,6,13.3c0,0.1,0,0.2,0,0.2c0,0,0,0,0,0
		c0,0,0,0,0,0c-0.1,0.2-0.2,0.4-0.4,0.6c0,0,0,0,0,0c-0.5,0.3-1.1,0.1-1.4-0.3c-0.1-0.2-0.5-0.3-0.7-0.2c-0.2,0.1-0.3,0.5-0.2,0.7
		c0.4,0.6,1,1,1.7,1c0.2,0,0.4,0,0.6-0.1c1,3.4,4,5.8,7.6,5.8c3.6,0,6.6-2.3,7.6-5.7c0.2,0.1,0.4,0.1,0.6,0.1c0.2,0,0.3,0,0.5-0.1
		c0.5-0.1,1-0.4,1.2-0.9C23.3,14.2,23.2,13.9,23,13.7z"/>
	<path class="st0" d="M15.6,10.5c0.3,0,0.5-0.2,0.5-0.5c0-0.6,0.4-1,1-1c0.6,0,1,0.4,1,1c0,0.3,0.2,0.5,0.5,0.5s0.5-0.2,0.5-0.5
		c0-1.1-0.9-2-2-2s-2,0.9-2,2C15.1,10.3,15.4,10.5,15.6,10.5z"/>
</g>
</symbol><symbol id="part" viewBox="0 0 16 16">
<path id="Fill-1" class="st2" d="M8,14.7c-3.7,0-6.7-3-6.7-6.7s3-6.7,6.7-6.7c3.7,0,6.7,3,6.7,6.7S11.7,14.7,8,14.7 M8,0
	C3.6,0,0,3.6,0,8c0,4.4,3.6,8,8,8c4.4,0,8-3.6,8-8C16,3.6,12.4,0,8,0"/>

<path id="Fill-4" class="st4" d="M8,0v1.3v6.6l5.5-3.6l1.1-0.7C13.2,1.4,10.8,0,8,0"/>
</symbol><symbol id="pause" viewBox="0 0 129 128">
<g id="Calque_1">
</g>
<g id="Calque_2">
	<g>
		<path d="M68.9,75.7c-0.3-0.2-0.4-0.6-0.4-0.9l0.1-21.6c0-0.7,0.7-1.1,1.5-1.2c0.8,0,1.5,0.5,1.5,1.1l-0.1,21.6
			c0,0.7-0.7,1.1-1.5,1.2C69.5,76,69.2,75.9,68.9,75.7z"/>
		<path d="M61.4,75.6c-0.3,0.2-0.6,0.3-1,0.3c-0.8,0-1.5-0.5-1.4-1.2L59,53.2c0-0.7,0.7-1.2,1.5-1.1c0.8,0,1.5,0.5,1.4,1.2
			l-0.1,21.5C61.8,75.1,61.6,75.4,61.4,75.6z"/>
	</g>
</g>
</symbol><symbol id="play" viewBox="0 0 300 300">
  <title>play</title>
  <polygon points="0 0 300 150 0 300 0 0"/>
</symbol><symbol id="plus" viewBox="0 0 15 14">
    <rect width="1.5" height="14" x="7"/>
    <rect width="1.5" height="14" x="7" transform="rotate(-90 7.75 7)"/>
</symbol><symbol id="print" viewBox="0 0 21 21">
    <title>Group 9</title>
    <g id="Page-1" stroke="none" stroke-width="1" fill="none" fill-rule="evenodd">
        <g id="1440_Siropcool_Recette-D&#xE9;tails" transform="translate(-241.000000, -1059.000000)" fill="#000000">
            <g id="Group-9" transform="translate(241.000000, 1059.000000)">
                <path d="M16.767,7.29 L15.309,7.29 C14.905863,7.29 14.58,7.616592 14.58,8.019 C14.58,8.421408 14.905863,8.748 15.309,8.748 L16.767,8.748 C17.170137,8.748 17.496,8.421408 17.496,8.019 C17.496,7.616592 17.170137,7.29 16.767,7.29" id="Fill-1"/>
                <path d="M13.122,13.122 L7.29,13.122 C6.887592,13.122 6.561,13.448592 6.561,13.851 C6.561,14.254137 6.887592,14.58 7.29,14.58 L13.122,14.58 C13.525137,14.58 13.851,14.254137 13.851,13.851 C13.851,13.448592 13.525137,13.122 13.122,13.122" id="Fill-3"/>
                <path d="M18.954,13.851 C18.953271,14.253408 18.627408,14.579271 18.225,14.58 L16.767,14.58 L16.767,10.935 C16.767,10.532592 16.441137,10.206 16.038,10.206 L4.374,10.206 C3.971592,10.206 3.645,10.532592 3.645,10.935 L3.645,14.58 L2.187,14.58 C1.784592,14.579271 1.458,14.253408 1.458,13.851 L1.458,6.561 C1.458,6.158592 1.784592,5.832 2.187,5.832 L18.225,5.832 C18.627408,5.832 18.953271,6.158592 18.954,6.561 L18.954,13.851 Z M15.309,18.225 C15.308271,18.627408 14.982408,18.953271 14.58,18.954 L5.832,18.954 C5.429592,18.953271 5.103,18.627408 5.103,18.225 L5.103,11.664 L15.309,11.664 L15.309,18.225 Z M5.103,2.187 C5.103,1.784592 5.429592,1.458 5.832,1.458 L14.58,1.458 C14.982408,1.458 15.308271,1.784592 15.309,2.187 L15.309,4.374 L5.103,4.374 L5.103,2.187 Z M18.225,4.374 L16.767,4.374 L16.767,2.187 C16.765542,0.979776 15.787224,0.001458 14.58,0 L5.832,0 C4.624776,0.001458 3.646458,0.979776 3.645,2.187 L3.645,4.374 L2.187,4.374 C0.979776,4.375458 0.001458,5.353776 0,6.561 L0,13.851 C0.001458,15.058224 0.979776,16.036542 2.187,16.038 L3.645,16.038 L3.645,18.225 C3.646458,19.432224 4.624776,20.410542 5.832,20.412 L14.58,20.412 C15.787224,20.410542 16.765542,19.432224 16.767,18.225 L16.767,16.038 L18.225,16.038 C19.432224,16.036542 20.410542,15.058224 20.412,13.851 L20.412,6.561 C20.410542,5.353776 19.432224,4.375458 18.225,4.374 L18.225,4.374 Z" id="Fill-5"/>
                <path d="M13.122,16.038 L7.29,16.038 C6.887592,16.038 6.561,16.363863 6.561,16.767 C6.561,17.170137 6.887592,17.496 7.29,17.496 L13.122,17.496 C13.525137,17.496 13.851,17.170137 13.851,16.767 C13.851,16.363863 13.525137,16.038 13.122,16.038" id="Fill-7"/>
            </g>
        </g>
    </g>
</symbol><symbol id="quiz" viewBox="0 0 50 50">
<style type="text/css">
	.st0{fill:#231F20;}
</style>
<g>
	<path class="st0" d="M25,0C11.2,0,0,11.2,0,25s11.2,25,25,25s25-11.2,25-25S38.8,0,25,0z M25,48C12.3,48,2,37.7,2,25S12.3,2,25,2
		s23,10.3,23,23S37.7,48,25,48z"/>
	<path class="st0" d="M22.8,17.4c-0.2,0-0.4,0.1-0.6,0.2l-1.9,1.8l-1.7-1.7c-0.2-0.2-0.4-0.2-0.6-0.2s-0.4,0.1-0.6,0.2
		c-0.3,0.3-0.3,0.8,0,1.1l1.6,1.6L17.4,22c-0.3,0.3-0.3,0.8,0,1.1c0.1,0.2,0.4,0.2,0.6,0.3c0.2,0,0.4-0.1,0.6-0.2l1.7-1.6l1.7,1.7
		c0.2,0.1,0.3,0.2,0.6,0.2c0.4,0,0.8-0.4,0.8-0.8c0-0.2-0.1-0.4-0.2-0.6l-1.7-1.7l1.8-1.8c0.3-0.3,0.3-0.8,0-1.1
		C23.3,17.5,23.1,17.4,22.8,17.4z"/>
	<path class="st0" d="M30.4,20.8c-0.7,0-1.4,0.1-2.1,0.3c0-0.1,0-0.1,0-0.2c0-4.6-3.6-8.3-7.9-8.3l0,0c-4.4,0-7.9,3.7-7.9,8.3
		c0,2,0.7,4,2,5.5L13.2,28c-0.2,0.3-0.2,0.8,0.1,1c0.1,0.1,0.3,0.2,0.5,0.2h6.1c0.2,0,0.3,0,0.5,0c0.7,0,1.4-0.1,2.1-0.3
		c0,0.1,0,0.1,0,0.2c0,4.6,3.6,8.3,7.9,8.3c0.2,0,0.3,0,0.4,0H37c0.4,0,0.8-0.3,0.8-0.8c0-0.2-0.1-0.3-0.2-0.5l-1.2-1.6
		c1.3-1.5,2-3.4,2-5.5C38.4,24.6,34.8,20.8,30.4,20.8z M23.5,25.1l-0.2,0.3l-0.1,0.1l-0.1,0.3v0.1l-0.4,1.2
		c-0.7,0.3-1.5,0.4-2.3,0.4c-0.1,0-0.3,0-0.4,0l0,0h-4.6l0.7-0.9c0.2-0.3,0.2-0.7-0.1-1c-2.6-2.6-2.6-6.9-0.2-9.6
		c1.2-1.3,2.8-2,4.5-2.1c1.7-0.1,3.3,0.6,4.6,1.9s2,3.1,2,4.9c0,0.3,0,0.6-0.1,0.8l-0.5,0.3c-0.1,0-0.1,0.1-0.3,0.2l-0.1,0.1
		c-0.1,0.1-0.1,0.1-0.2,0.2l-0.3,0.2l-0.1,0.1L25,23.1l-0.5,0.5c-0.1,0.1-0.2,0.2-0.3,0.3l-0.1,0.2C24,24.2,23.6,25,23.5,25.1
		L23.5,25.1z M26.7,22.4L26.7,22.4L26.7,22.4L26.7,22.4z M34.8,35.1l0.7,0.9h-4.6l0,0c-0.1,0-0.3,0-0.4,0c-3.5,0-6.4-3-6.4-6.8
		c0-0.4,0-0.8,0.1-1.2c0-0.3,0.1-0.5,0.2-0.8c0-0.1,0.1-0.3,0.1-0.4c0.6-1.5,1.6-2.8,3-3.6c0.1-0.1,0.2-0.1,0.4-0.2
		c0.8-0.4,1.7-0.6,2.6-0.6l0,0c3.5,0,6.4,3,6.4,6.8c0,1.8-0.7,3.6-2,4.9C34.6,34.3,34.6,34.8,34.8,35.1z"/>
	<path class="st0" d="M32.2,26.6L32.2,26.6l-2.9,3.2l-0.6-0.6c-0.1-0.2-0.3-0.3-0.6-0.3c-0.2,0-0.4,0.1-0.6,0.2
		c-0.3,0.3-0.4,0.8-0.1,1.2l1.2,1.3c0.2,0.2,0.4,0.3,0.6,0.3c0.2,0,0.5-0.1,0.6-0.3l3.5-3.9c0.3-0.3,0.2-0.9-0.1-1.1
		C33,26.3,32.5,26.3,32.2,26.6z"/>
</g>
</symbol><symbol id="shape-lesson" viewBox="0 0 218 70">

<path class="st2" d="M209.7,0.8c-13.5,3.6-27.4,8.5-38.9,14.8c-12.1,6.7-23.3,15-37.6,18.6c-13.5,3.4-28.3,2.2-42.6,1.9
	c-9.4-0.2-18.9,0.1-28.1,1.5C37.1,41.3,14.1,53.4,1,70c71.3,0,146.1,0,217.4,0c2.6-17.5,4.3-30.8,4.6-48.4c0.1-3.5-4.7-11.5-4.6-15
	c0-1.8,0-3.7-1.4-5.1C215.6,0,211.1-0.6,209.7,0.8"/>
</symbol><symbol id="share" viewBox="0 0 20 23">
<path d="M3.9,13.6c-1.2,0-2.1-0.9-2.1-2.1s0.9-2.1,2.1-2.1S6,10.3,6,11.5S5,13.6,3.9,13.6 M16.1,1.9
	c1.2,0,2.1,0.9,2.1,2.1s-0.9,2.1-2.1,2.1C15,6.1,14,5.1,14,4S15,1.9,16.1,1.9 M16.1,21.1C15,21.1,14,20.2,14,19
	c0-1.2,0.9-2.1,2.1-2.1c1.2,0,2.1,0.9,2.1,2.1C18.2,20.2,17.3,21.1,16.1,21.1 M16.1,15.2c-1.2,0-2.2,0.5-2.9,1.4l-5.8-3.7
	c0.2-0.5,0.3-0.9,0.3-1.4c0-0.4-0.1-0.8-0.2-1.1l5.9-3.7c0.7,0.7,1.7,1.2,2.7,1.2c2.1,0,3.8-1.7,3.8-3.8s-1.7-3.8-3.8-3.8
	c-2.1,0-3.8,1.7-3.8,3.8c0,0.4,0.1,0.8,0.2,1.2L6.6,8.9C5.9,8.1,4.9,7.6,3.9,7.6C1.8,7.6,0,9.4,0,11.5s1.7,3.8,3.8,3.8
	c0.9,0,1.8-0.3,2.5-1l6,3.8c-0.1,0.3-0.1,0.5-0.1,0.9c0,2.1,1.7,3.8,3.8,3.8s3.8-1.7,3.8-3.8S18.2,15.2,16.1,15.2"/>
</symbol><symbol id="sheet" viewBox="0 0 28 28">
<g>
	<polygon points="15.9,7.7 15.9,10.5 18.6,10.5 	"/>
	<path d="M15.1,10.9V7.2H8.9v13.6h10.3v-9.5h-3.7C15.3,11.3,15.1,11.1,15.1,10.9z M10.4,11.1h2.8c0.2,0,0.4,0.2,0.4,0.4
		c0,0.2-0.2,0.4-0.4,0.4h-2.8c-0.2,0-0.4-0.2-0.4-0.4C10,11.3,10.2,11.1,10.4,11.1z M17.5,17.3h-7.1c-0.2,0-0.4-0.2-0.4-0.4
		s0.2-0.4,0.4-0.4c0,0,0,0,0,0h7.1c0.2,0,0.4,0.2,0.4,0.4C17.9,17.1,17.7,17.3,17.5,17.3z M17.9,14.2c0,0.2-0.2,0.4-0.4,0.4h-7.1
		c-0.2,0-0.4-0.2-0.4-0.4s0.2-0.4,0.4-0.4c0,0,0,0,0,0h7.1C17.7,13.8,17.9,14,17.9,14.2z"/>
	<path d="M14,0C6.3,0,0,6.3,0,14s6.3,14,14,14s14-6.3,14-14S21.7,0,14,0z M19.9,21.2c0,0.2-0.2,0.4-0.4,0.4h-11
		c-0.2,0-0.4-0.2-0.4-0.4V6.8c0-0.2,0.2-0.4,0.4-0.4c0,0,0,0,0,0h7c0,0,0,0,0,0c0,0,0,0,0,0c0.1,0,0.2,0,0.3,0.1l4,4
		c0,0,0.1,0.1,0.1,0.1c0,0.1,0,0.1,0,0.2V21.2z"/>
</g>
</symbol><symbol id="showreel-en" viewBox="0 0 129 127">

<g transform="rotate(-2 74.932 34.145)">
	<polygon class="st0" points="68.7,11.2 71.5,11.4 76.9,0.9 74.2,0.7 70.4,8.3 68.3,0.2 65.5,0 	"/>
	<path class="st0" d="M80.8,10.4c0.3,0.8,1,1.4,2,1.8c0.9,0.3,1.8,0.3,2.6-0.2c0.8-0.4,1.4-1.1,1.7-2.1C87.4,9,87.4,8.1,87,7.2
		c-0.4-0.9-1-1.4-1.9-1.8c-1-0.3-1.8-0.3-2.7,0.2c-0.8,0.4-1.4,1.1-1.7,2.1C80.5,8.6,80.5,9.5,80.8,10.4 M81.4,3.6
		c1.4-0.7,2.9-0.7,4.4-0.2c1.5,0.5,2.7,1.5,3.3,2.9c0.7,1.4,0.8,2.9,0.2,4.4c-0.6,1.6-1.5,2.7-3,3.4c-1.4,0.7-2.9,0.7-4.4,0.2
		c-1.5-0.5-2.6-1.5-3.3-2.9c-0.7-1.4-0.7-2.9-0.2-4.5C79,5.3,80,4.2,81.4,3.6"/>
	<polygon class="st0" points="97.3,8.9 96.7,14.1 101.2,11.4 103.4,12.8 96.3,16.9 94.2,20.1 92.2,18.9 94.3,15.6 95.2,7.5 	"/>
	<path class="st0" d="M107,20.5l-3.6,1.6l2,1.9L107,20.5z M110.1,19l-4.7,11l-1.7-1.7l0.9-2.2l-3.1-3L99.3,24l-1.7-1.7l11-4.9
		L110.1,19z M113,34.3l1.9-1.1l2.4,3.9l-3.8,2.3c-1.5-0.3-3.1-1.3-4.1-2.9c-0.9-1.4-1.1-2.9-0.8-4.4c0.3-1.5,1.2-2.7,2.6-3.6
		c1.5-0.9,3-1.2,4.5-0.8c1.5,0.4,2.7,1.3,3.6,2.7c1,1.6,1.1,3.2,0.5,4.9l-2.2-0.5c0.5-1,0.4-2.3-0.3-3.3c-0.5-0.7-1.1-1.2-2-1.5
		c-0.9-0.2-1.8-0.1-2.7,0.5c-0.9,0.6-1.5,1.3-1.7,2.2c-0.2,0.9-0.1,1.8,0.5,2.6c0.5,0.8,1.1,1.3,1.8,1.6l1.1-0.7L113,34.3z"/>
	<polygon class="st0" points="113.4,43.6 124,40.2 126.5,48.1 124.4,48.7 122.6,43.1 120.5,43.8 122.2,49.1 120.2,49.8 118.5,44.5
		116.2,45.2 117.9,50.8 115.8,51.4 	"/>
	<path class="st0" d="M125.7,57l-3.2,0.2l0.1,1.8c0.1,1.5,0.7,2.3,1.8,2.2c1.1-0.1,1.5-0.8,1.4-2.4L125.7,57z M117,61.7l3.4-2.4
		l-0.1-1.9l-3.6,0.2l-0.2-2.4l11.2-0.8l0.3,4.6c0.1,1.2-0.2,2.3-0.8,3.1c-0.6,0.9-1.5,1.3-2.6,1.4c-1.6,0.1-2.9-0.7-3.6-1.9
		l-3.9,2.7L117,61.7z M124,78.8l-6.5-2l-0.3,0.9c-0.8,2.7-0.1,4.3,2.1,5c2.1,0.6,3.6-0.4,4.4-3L124,78.8z M116.1,73.9l10.7,3.2
		l-1.1,3.5c-0.5,1.5-1.3,2.8-2.4,3.7c-1.2,0.9-2.8,1.2-4.7,0.7c-1.9-0.6-3.1-1.8-3.6-3.2c-0.5-1.4-0.5-2.9,0-4.4L116.1,73.9z
		 M116.7,93.7l-2.4-3l-1.4,2.4L116.7,93.7z M118.9,96.3L107,94.4l1.2-2.1l2.4,0.3l2.2-3.7l-1.5-1.9l1.2-2.1l7.4,9.4L118.9,96.3z"/>
	<polygon class="st0" points="100.3,101.4 108.8,103.6 103.5,98.2 105.2,96.6 113.1,104.4 111.1,106.5 102.5,104.3 107.9,109.6
		106.2,111.3 98.3,103.4 	"/>
	<path class="st0" d="M94.9,111.3c2.1-0.8,3.8-0.5,4.8,1c0.5,0.9,0.6,1.8,0.2,2.7c-0.4,1-1,1.7-2,2.3c-1.5,0.9-3,1.1-4.6,0.7
		l0.5-2.3c1.2,0.3,2.2,0.2,3.1-0.4c0.9-0.5,1.2-1.2,0.8-1.8c-0.3-0.5-1-0.6-2-0.2l-1,0.4c-2.3,1-4,0.6-5-1c-0.5-0.9-0.6-1.8-0.2-2.7
		c0.4-1,1.1-1.8,2.3-2.5c1.7-1,3.6-1.1,5.1-0.6l-0.5,2.2c-1.3-0.5-2.4-0.4-3.5,0.3c-1,0.6-1.4,1.4-1,2c0.3,0.5,1,0.6,1.9,0.2
		L94.9,111.3z"/>
	<polygon class="st0" points="78.8,113.5 81.1,124.4 78.8,124.9 76.9,116.1 72,117.2 71.5,115 	"/>
	<polygon class="st0" points="70.2,126.2 67.8,126.4 69.3,122.6 71.5,122.4 	"/>
	<g transform="translate(52.931 114.272)">
		
		<mask maskUnits="userSpaceOnUse" x="0.2" y="0.7" width="10.2" height="11.3" id="showreel-b_1_">
			<g class="st1">
				<polygon id="showreel-a_1_" class="st2" points="0.2,0.5 10.3,0.5 10.3,12.3 0.2,12.3 				"/>
			</g>
		</mask>
		<path class="st3" d="M2.6,11.5l-2.3-0.3l0.7-6.2c0.4-3.3,2.3-4.9,5.2-4.6c2.9,0.3,4.5,2.3,4.1,5.6l-0.7,6.2L7.2,12l0.7-6.3
			c0.2-1.7-0.5-2.9-2-3.1C4.3,2.5,3.5,3.4,3.3,5.3L2.6,11.5z"/>
	</g>
	<polygon class="st0" points="44.4,111.2 46,119.8 48.7,112.8 50.9,113.7 46.9,124.1 44.3,123.1 42.7,114.4 40,121.5 37.8,120.6
		41.8,110.2 	"/>
	<polygon class="st0" points="38.2,108.1 32.3,117.5 30.3,116.3 36.2,106.8 	"/>
	<polygon class="st0" points="27.8,104.2 20.4,108.4 18.6,106.8 28.9,101.1 30.8,102.7 26.1,113.5 24.3,111.9 	"/>
	<polygon class="st0" points="24.3,96.3 15.1,102.7 10.4,96 12.2,94.7 15.6,99.5 17.4,98.3 14.2,93.7 15.9,92.4 19.2,97 21.2,95.6
		17.8,90.8 19.6,89.6 	"/>
	<path class="st0" d="M8.5,87.2l3-1.2l-0.7-1.7c-0.6-1.4-1.4-2-2.4-1.6c-1,0.4-1.2,1.3-0.6,2.7L8.5,87.2z M15.4,80.2l-2.5,3.3
		l0.7,1.8l3.3-1.3l0.9,2.2L7.3,90.2l-1.7-4.3c-0.5-1.2-0.5-2.2-0.2-3.2c0.3-1,1-1.7,2.1-2.1c1.5-0.6,3-0.2,4.1,0.8l2.9-3.8
		L15.4,80.2z M8.7,72.1c-0.1,2.2-1,3.7-2.8,4c-1,0.1-1.9-0.1-2.6-0.9c-0.7-0.7-1.2-1.6-1.3-2.8c-0.2-1.7,0.1-3.2,1.2-4.5L5,69.3
		c-0.7,1-1,1.9-0.9,3c0.1,1,0.7,1.6,1.3,1.5C6,73.7,6.3,73.1,6.3,72l0-1.1c0-2.5,1-3.9,2.9-4.2c1-0.1,1.9,0.1,2.6,0.9
		c0.7,0.7,1.2,1.7,1.4,3c0.3,1.9-0.4,3.7-1.5,4.9L10,74.1c0.9-1,1.3-2.1,1.1-3.3c-0.2-1.2-0.8-1.8-1.5-1.8c-0.6,0.1-0.9,0.7-0.9,1.7
		L8.7,72.1z M12.9,56.5l-11-2.3l1.7-8.1l2.1,0.4l-1.2,5.7l2.2,0.4l1.1-5.5l2.1,0.4l-1.1,5.5l2.4,0.5l1.2-5.7l2.1,0.4L12.9,56.5z
		 M0,50.1l0.5-2.6l1.3,1.9l-0.5,2.3L0,50.1z M8.6,38.9l2.9,1.4l0.8-1.7c0.7-1.4,0.5-2.3-0.5-2.8c-1-0.5-1.8,0-2.4,1.4L8.6,38.9z
		 M18.5,39.1l-4.2,0.5l-0.8,1.7l3.2,1.5l-1,2.1L5.6,40.1l2-4.2c0.5-1.1,1.3-1.9,2.2-2.3c0.9-0.5,1.9-0.4,2.9,0
		c1.4,0.7,2.2,2,2.2,3.5l4.7-0.5L18.5,39.1z M18.1,25.4l2,3.4l1.8-2.1L18.1,25.4z M16.3,22.4l11.4,3.7L26.2,28l-2.3-0.7l-2.7,3.3
		l1.2,2.1l-1.6,1.9l-5.9-10.4L16.3,22.4z M30.5,21l1.9-1.4c1.1-0.8,1.4-1.5,0.8-2.2c-0.5-0.6-1.3-0.6-2.3,0.2L29,19L30.5,21z
		 M26.4,15.6l1.4,1.8l1.8-1.4c1-0.7,1.2-1.4,0.8-2c-0.5-0.7-1.1-0.6-2.2,0.3L26.4,15.6z M29.9,24.2l-6.7-8.9l4-3
		c1.9-1.4,3.7-1.4,4.9,0.2c0.5,0.7,0.7,1.6,0.4,2.5c1.2,0,2,0.4,2.7,1.2c0.6,0.8,0.8,1.6,0.6,2.5c-0.2,0.9-0.8,1.7-1.7,2.4
		L29.9,24.2z"/>
	<polygon class="st0" points="40.3,17.1 35.7,6.9 37.8,6 41.5,14.1 46.2,12.1 47.1,14 	"/>
	<polygon class="st0" points="50.1,13.1 47.9,2.1 55.9,0.5 56.4,2.6 50.6,3.8 51.1,6 56.6,4.8 57,6.9 51.5,8.1 52,10.4 57.8,9.3
		58.2,11.4 	"/>
	<path d="M55.8,75.1c-0.4,0-0.7-0.1-1-0.3c-0.6-0.4-0.9-1-0.9-1.7l0-19.8c0-0.7,0.3-1.3,0.9-1.7c0.6-0.4,1.3-0.4,1.9-0.2
		c0,0,0,0,0,0l23,9.9c0.7,0.3,1.2,1,1.2,1.8c0,0.8-0.5,1.5-1.2,1.8l-23,9.9C56.4,75.1,56.1,75.1,55.8,75.1z M55.8,73.1
		c0,0,0.1,0.1,0.1,0.1l0,0l23-9.9c0,0,0.1,0,0.1-0.1c0-0.1,0-0.1-0.1-0.1l-23-9.9l0,0c0,0,0,0-0.1,0L55.8,73.1L55.8,73.1z"/>
</g>
</symbol><symbol id="showreel-fr" viewBox="0 0 129 127">

<g transform="rotate(-2 74.932 34.145)">
	<polygon class="st0" points="68.7,11.2 71.5,11.4 76.9,0.9 74.2,0.7 70.4,8.3 68.3,0.2 65.5,0 	"/>
	<path class="st0" d="M80.8,10.4c0.3,0.8,1,1.4,2,1.8c0.9,0.3,1.8,0.3,2.6-0.2c0.8-0.4,1.4-1.1,1.7-2.1C87.4,9,87.4,8.1,87,7.2
		c-0.4-0.9-1-1.4-1.9-1.8c-1-0.3-1.8-0.3-2.7,0.2c-0.8,0.4-1.4,1.1-1.7,2.1C80.5,8.6,80.5,9.5,80.8,10.4 M81.4,3.6
		c1.4-0.7,2.9-0.7,4.4-0.2c1.5,0.5,2.7,1.5,3.3,2.9c0.7,1.4,0.8,2.9,0.2,4.4c-0.6,1.6-1.5,2.7-3,3.4c-1.4,0.7-2.9,0.7-4.4,0.2
		c-1.5-0.5-2.6-1.5-3.3-2.9c-0.7-1.4-0.7-2.9-0.2-4.5C79,5.3,80,4.2,81.4,3.6"/>
	<polygon class="st0" points="97.3,8.9 96.7,14.1 101.2,11.4 103.4,12.8 96.3,16.9 94.2,20.1 92.2,18.9 94.3,15.6 95.2,7.5 	"/>
	<path class="st0" d="M107,20.5l-3.6,1.6l2,1.9L107,20.5z M110.1,19l-4.7,11l-1.7-1.7l0.9-2.2l-3.1-3L99.3,24l-1.7-1.7l11-4.9
		L110.1,19z M113,34.3l1.9-1.1l2.4,3.9l-3.8,2.3c-1.5-0.3-3.1-1.3-4.1-2.9c-0.9-1.4-1.1-2.9-0.8-4.4c0.3-1.5,1.2-2.7,2.6-3.6
		c1.5-0.9,3-1.2,4.5-0.8c1.5,0.4,2.7,1.3,3.6,2.7c1,1.6,1.1,3.2,0.5,4.9l-2.2-0.5c0.5-1,0.4-2.3-0.3-3.3c-0.5-0.7-1.1-1.2-2-1.5
		c-0.9-0.2-1.8-0.1-2.7,0.5c-0.9,0.6-1.5,1.3-1.7,2.2c-0.2,0.9-0.1,1.8,0.5,2.6c0.5,0.8,1.1,1.3,1.8,1.6l1.1-0.7L113,34.3z"/>
	<polygon class="st0" points="113.4,43.6 124,40.2 126.5,48.1 124.4,48.7 122.6,43.1 120.5,43.8 122.2,49.1 120.2,49.8 118.5,44.5
		116.2,45.2 117.9,50.8 115.8,51.4 	"/>
	<path class="st0" d="M125.7,57l-3.2,0.2l0.1,1.8c0.1,1.5,0.7,2.3,1.8,2.2c1.1-0.1,1.5-0.8,1.4-2.4L125.7,57z M117,61.7l3.4-2.4
		l-0.1-1.9l-3.6,0.2l-0.2-2.4l11.2-0.8l0.3,4.6c0.1,1.2-0.2,2.3-0.8,3.1c-0.6,0.9-1.5,1.3-2.6,1.4c-1.6,0.1-2.9-0.7-3.6-1.9
		l-3.9,2.7L117,61.7z M124,78.8l-6.5-2l-0.3,0.9c-0.8,2.7-0.1,4.3,2.1,5c2.1,0.6,3.6-0.4,4.4-3L124,78.8z M116.1,73.9l10.7,3.2
		l-1.1,3.5c-0.5,1.5-1.3,2.8-2.4,3.7c-1.2,0.9-2.8,1.2-4.7,0.7c-1.9-0.6-3.1-1.8-3.6-3.2c-0.5-1.4-0.5-2.9,0-4.4L116.1,73.9z
		 M116.7,93.7l-2.4-3l-1.4,2.4L116.7,93.7z M118.9,96.3L107,94.4l1.2-2.1l2.4,0.3l2.2-3.7l-1.5-1.9l1.2-2.1l7.4,9.4L118.9,96.3z"/>
	<polygon class="st0" points="100.3,101.4 108.8,103.6 103.5,98.2 105.2,96.6 113.1,104.4 111.1,106.5 102.5,104.3 107.9,109.6
		106.2,111.3 98.3,103.4 	"/>
	<path class="st0" d="M94.9,111.3c2.1-0.8,3.8-0.5,4.8,1c0.5,0.9,0.6,1.8,0.2,2.7c-0.4,1-1,1.7-2,2.3c-1.5,0.9-3,1.1-4.6,0.7
		l0.5-2.3c1.2,0.3,2.2,0.2,3.1-0.4c0.9-0.5,1.2-1.2,0.8-1.8c-0.3-0.5-1-0.6-2-0.2l-1,0.4c-2.3,1-4,0.6-5-1c-0.5-0.9-0.6-1.8-0.2-2.7
		c0.4-1,1.1-1.8,2.3-2.5c1.7-1,3.6-1.1,5.1-0.6l-0.5,2.2c-1.3-0.5-2.4-0.4-3.5,0.3c-1,0.6-1.4,1.4-1,2c0.3,0.5,1,0.6,1.9,0.2
		L94.9,111.3z"/>
	<polygon class="st0" points="78.8,113.5 81.1,124.4 78.8,124.9 76.9,116.1 72,117.2 71.5,115 	"/>
	<polygon class="st0" points="70.2,126.2 67.8,126.4 69.3,122.6 71.5,122.4 	"/>
	<g transform="translate(52.931 114.272)">
		
		<mask maskUnits="userSpaceOnUse" x="0.2" y="0.7" width="10.2" height="11.3" id="showreel-b_1_">
			<g class="st1">
				<polygon id="showreel-a_1_" class="st2" points="0.2,0.5 10.3,0.5 10.3,12.3 0.2,12.3 				"/>
			</g>
		</mask>
		<path class="st3" d="M2.6,11.5l-2.3-0.3l0.7-6.2c0.4-3.3,2.3-4.9,5.2-4.6c2.9,0.3,4.5,2.3,4.1,5.6l-0.7,6.2L7.2,12l0.7-6.3
			c0.2-1.7-0.5-2.9-2-3.1C4.3,2.5,3.5,3.4,3.3,5.3L2.6,11.5z"/>
	</g>
	<polygon class="st0" points="44.4,111.2 46,119.8 48.7,112.8 50.9,113.7 46.9,124.1 44.3,123.1 42.7,114.4 40,121.5 37.8,120.6
		41.8,110.2 	"/>
	<polygon class="st0" points="38.2,108.1 32.3,117.5 30.3,116.3 36.2,106.8 	"/>
	<polygon class="st0" points="27.8,104.2 20.4,108.4 18.6,106.8 28.9,101.1 30.8,102.7 26.1,113.5 24.3,111.9 	"/>
	<polygon class="st0" points="24.3,96.3 15.1,102.7 10.4,96 12.2,94.7 15.6,99.5 17.4,98.3 14.2,93.7 15.9,92.4 19.2,97 21.2,95.6
		17.8,90.8 19.6,89.6 	"/>
	<path class="st0" d="M8.5,87.2l3-1.2l-0.7-1.7c-0.6-1.4-1.4-2-2.4-1.6c-1,0.4-1.2,1.3-0.6,2.7L8.5,87.2z M15.4,80.2l-2.5,3.3
		l0.7,1.8l3.3-1.3l0.9,2.2L7.3,90.2l-1.7-4.3c-0.5-1.2-0.5-2.2-0.2-3.2c0.3-1,1-1.7,2.1-2.1c1.5-0.6,3-0.2,4.1,0.8l2.9-3.8
		L15.4,80.2z M8.7,72.1c-0.1,2.2-1,3.7-2.8,4c-1,0.1-1.9-0.1-2.6-0.9c-0.7-0.7-1.2-1.6-1.3-2.8c-0.2-1.7,0.1-3.2,1.2-4.5L5,69.3
		c-0.7,1-1,1.9-0.9,3c0.1,1,0.7,1.6,1.3,1.5C6,73.7,6.3,73.1,6.3,72l0-1.1c0-2.5,1-3.9,2.9-4.2c1-0.1,1.9,0.1,2.6,0.9
		c0.7,0.7,1.2,1.7,1.4,3c0.3,1.9-0.4,3.7-1.5,4.9L10,74.1c0.9-1,1.3-2.1,1.1-3.3c-0.2-1.2-0.8-1.8-1.5-1.8c-0.6,0.1-0.9,0.7-0.9,1.7
		L8.7,72.1z M12.9,56.5l-11-2.3l1.7-8.1l2.1,0.4l-1.2,5.7l2.2,0.4l1.1-5.5l2.1,0.4l-1.1,5.5l2.4,0.5l1.2-5.7l2.1,0.4L12.9,56.5z
		 M0,50.1l0.5-2.6l1.3,1.9l-0.5,2.3L0,50.1z M8.6,38.9l2.9,1.4l0.8-1.7c0.7-1.4,0.5-2.3-0.5-2.8c-1-0.5-1.8,0-2.4,1.4L8.6,38.9z
		 M18.5,39.1l-4.2,0.5l-0.8,1.7l3.2,1.5l-1,2.1L5.6,40.1l2-4.2c0.5-1.1,1.3-1.9,2.2-2.3c0.9-0.5,1.9-0.4,2.9,0
		c1.4,0.7,2.2,2,2.2,3.5l4.7-0.5L18.5,39.1z M18.1,25.4l2,3.4l1.8-2.1L18.1,25.4z M16.3,22.4l11.4,3.7L26.2,28l-2.3-0.7l-2.7,3.3
		l1.2,2.1l-1.6,1.9l-5.9-10.4L16.3,22.4z M30.5,21l1.9-1.4c1.1-0.8,1.4-1.5,0.8-2.2c-0.5-0.6-1.3-0.6-2.3,0.2L29,19L30.5,21z
		 M26.4,15.6l1.4,1.8l1.8-1.4c1-0.7,1.2-1.4,0.8-2c-0.5-0.7-1.1-0.6-2.2,0.3L26.4,15.6z M29.9,24.2l-6.7-8.9l4-3
		c1.9-1.4,3.7-1.4,4.9,0.2c0.5,0.7,0.7,1.6,0.4,2.5c1.2,0,2,0.4,2.7,1.2c0.6,0.8,0.8,1.6,0.6,2.5c-0.2,0.9-0.8,1.7-1.7,2.4
		L29.9,24.2z"/>
	<polygon class="st0" points="40.3,17.1 35.7,6.9 37.8,6 41.5,14.1 46.2,12.1 47.1,14 	"/>
	<polygon class="st0" points="50.1,13.1 47.9,2.1 55.9,0.5 56.4,2.6 50.6,3.8 51.1,6 56.6,4.8 57,6.9 51.5,8.1 52,10.4 57.8,9.3
		58.2,11.4 	"/>
	<path d="M55.8,75.1c-0.4,0-0.7-0.1-1-0.3c-0.6-0.4-0.9-1-0.9-1.7l0-19.8c0-0.7,0.3-1.3,0.9-1.7c0.6-0.4,1.3-0.4,1.9-0.2
		c0,0,0,0,0,0l23,9.9c0.7,0.3,1.2,1,1.2,1.8c0,0.8-0.5,1.5-1.2,1.8l-23,9.9C56.4,75.1,56.1,75.1,55.8,75.1z M55.8,73.1
		c0,0,0.1,0.1,0.1,0.1l0,0l23-9.9c0,0,0.1,0,0.1-0.1c0-0.1,0-0.1-0.1-0.1l-23-9.9l0,0c0,0,0,0-0.1,0L55.8,73.1L55.8,73.1z"/>
</g>
</symbol><symbol id="showreel-in-en" viewBox="0 0 129 128">
<g>
	<g>
		<path d="M56.5,52.4l23,9.9c0.8,0.4,0.8,1.6,0,1.9l-23,9.9c-0.7,0.3-1.5-0.2-1.5-1V53.3C55,52.6,55.8,52.1,56.5,52.4z"/>
		<path d="M56.1,75.1c-0.4,0-0.8-0.1-1.1-0.3c-0.6-0.4-0.9-1-0.9-1.7V53.3c0-0.7,0.3-1.3,0.9-1.7c0.6-0.4,1.3-0.4,1.9-0.2l0,0
			l23,9.9c0.7,0.3,1.2,1,1.2,1.8s-0.5,1.5-1.2,1.8l-23,9.9C56.6,75,56.3,75.1,56.1,75.1z M56,73.1L56,73.1L56,73.1l23.1-9.8
			c0,0,0.1,0,0.1-0.1s0-0.1-0.1-0.1l-23-9.9c0,0,0,0-0.1,0V73.1L56,73.1z"/>
	</g>
</g>
</symbol><symbol id="showreel-in-fr" viewBox="0 0 129 128">
<g>
	<g>
		<path d="M56.5,52.4l23,9.9c0.8,0.4,0.8,1.6,0,1.9l-23,9.9c-0.7,0.3-1.5-0.2-1.5-1V53.3C55,52.6,55.8,52.1,56.5,52.4z"/>
		<path d="M56.1,75.1c-0.4,0-0.8-0.1-1.1-0.3c-0.6-0.4-0.9-1-0.9-1.7V53.3c0-0.7,0.3-1.3,0.9-1.7c0.6-0.4,1.3-0.4,1.9-0.2l0,0
			l23,9.9c0.7,0.3,1.2,1,1.2,1.8s-0.5,1.5-1.2,1.8l-23,9.9C56.6,75,56.3,75.1,56.1,75.1z M56,73.1L56,73.1L56,73.1l23.1-9.8
			c0,0,0.1,0,0.1-0.1s0-0.1-0.1-0.1l-23-9.9c0,0,0,0-0.1,0V73.1L56,73.1z"/>
	</g>
</g>
</symbol><symbol id="showreel-out-en" viewBox="0 0 123.3 123.3">
<g>
	<path d="M69.8,9.2c1.1-0.6,1.9-1.9,2.1-3.6s-0.4-3.1-1.4-3.9S68.3,0.4,67,0.3L63.9,0l-1,9.7L66,10C67.4,10.1,68.7,9.9,69.8,9.2z
		 M65.1,8l0.6-5.9l0.8,0.1c2.4,0.2,3.5,1.3,3.3,3.3s-1.5,2.9-3.9,2.6L65.1,8z"/>
	<rect x="70.1" y="5.5" transform="matrix(0.2348 -0.972 0.972 0.2348 50.9796 77.8023)" width="9.7" height="2"/>
	<path d="M80.7,11.6c-1-0.4-1.7-1.2-2.1-2.3l-1.8,0.8c0.4,1.3,1.5,2.6,3.1,3.2c1.1,0.4,2.1,0.5,2.9,0.2s1.4-0.8,1.8-1.6
		c0.6-1.6-0.1-2.9-2-4l-0.8-0.5c-0.8-0.5-1.1-1-0.9-1.4c0.2-0.5,0.9-0.7,1.7-0.4c0.9,0.3,1.5,1,1.9,1.9l1.8-0.9
		c-0.6-1.3-1.5-2.2-2.9-2.8c-0.9-0.3-1.8-0.4-2.7-0.1c-0.8,0.2-1.4,0.8-1.7,1.6c-0.6,1.5,0.2,2.8,1.8,3.8l1,0.6
		c0.8,0.5,1.1,1,0.9,1.4C82.4,11.8,81.7,11.9,80.7,11.6z"/>
	<path d="M86.2,14.5c0.4,1.3,1.2,2.3,2.5,3.1c1.4,0.8,2.8,1,4.3,0.5l-0.4-2c-1,0.4-2,0.4-3-0.2c-0.7-0.4-1.2-1-1.4-1.8
		c-0.2-0.8-0.1-1.6,0.4-2.4c0.5-0.8,1.1-1.3,1.9-1.5s1.5-0.1,2.2,0.3c0.9,0.5,1.5,1.5,1.5,2.5l1.9-0.5c-0.2-1.6-1-2.7-2.4-3.6
		c-1.2-0.7-2.5-1-3.8-0.7s-2.3,1.1-3.1,2.4C86.1,12,85.9,13.3,86.2,14.5z"/>
	<path d="M94.5,19.8c0.1,1.3,0.6,2.5,1.7,3.4c1,0.9,2.2,1.4,3.6,1.3s2.5-0.6,3.5-1.7s1.4-2.3,1.3-3.6c-0.1-1.4-0.6-2.5-1.7-3.5
		c-1-0.9-2.2-1.4-3.6-1.3c-1.3,0.1-2.5,0.6-3.5,1.7C94.9,17.3,94.5,18.5,94.5,19.8z M97.4,17.6c0.6-0.6,1.3-1,2-1.1
		c0.8-0.1,1.5,0.2,2.2,0.8c0.6,0.6,0.9,1.2,0.9,2.1c0,0.8-0.3,1.5-0.8,2.2c-0.6,0.6-1.3,1-2.1,1.1c-0.8,0.1-1.5-0.2-2.1-0.7
		c-0.7-0.6-1-1.3-1-2.1C96.6,19,96.9,18.3,97.4,17.6z"/>
	<polygon points="103.3,30.8 113,27.5 111.7,25.8 104.7,28.3 108.9,22.2 107.6,20.5 102,29.1 	"/>
	<polygon points="109.1,40.4 110.7,39.5 108.3,35 110.2,34 112.5,38.3 114.1,37.4 111.8,33.2 113.5,32.3 115.9,36.7 117.6,35.9
		114.2,29.5 105.7,34.1 	"/>
	<path d="M110.4,44l3-1l0.5,1.6l-2.4,2.8l0.7,2.2l2.7-3.1c0.9,0.9,2.2,1.3,3.5,0.9c0.9-0.3,1.6-0.9,1.9-1.7s0.3-1.8,0-2.8L119,39
		l-9.2,3L110.4,44z M117.8,41.6l0.5,1.5c0.4,1.3,0.2,2.1-0.7,2.4c-0.9,0.3-1.6-0.2-2-1.5l-0.5-1.5L117.8,41.6z"/>
	<polygon points="113.3,56.8 113.4,58.9 121.2,58.3 121.4,61.1 123.3,60.9 122.7,53.3 120.8,53.5 121,56.2 	"/>
	<polygon points="113.4,64.8 117.4,65.2 117,69.2 113,68.8 112.8,70.9 122.5,71.8 122.7,69.8 118.9,69.4 119.3,65.4 123.1,65.7
		123.3,63.7 113.6,62.7 	"/>
	<polygon points="110.5,79.5 112.3,80 113.7,75.1 115.7,75.7 114.4,80.4 116.2,80.9 117.5,76.2 119.4,76.8 118,81.7 119.8,82.2
		121.8,75.3 112.5,72.6 	"/>
	<polygon points="106.4,87.9 110.9,92.8 104.6,90.7 103.5,92.5 110.3,99.9 111.5,98 107.1,93.4 113.2,95.4 114.3,93.6 109.9,88.9
		116,91 117.1,89.1 107.5,86.1 	"/>
	<path d="M101.7,96.8c-1.3,0-2.5,0.5-3.5,1.5s-1.5,2.2-1.5,3.5c0,1.4,0.5,2.5,1.5,3.6c1,1,2.2,1.5,3.6,1.5s2.5-0.5,3.5-1.5
		s1.5-2.2,1.5-3.5s-0.5-2.5-1.5-3.5C104.2,97.3,103,96.8,101.7,96.8z M103.9,104c-0.6,0.6-1.3,0.9-2.1,0.8c-0.8,0-1.5-0.4-2.1-1
		s-0.9-1.3-1-2.1c-0.1-0.8,0.2-1.5,0.9-2.1c0.6-0.6,1.3-0.9,2.1-0.9c0.8,0,1.5,0.4,2.1,1s0.9,1.3,1,2.1
		C104.8,102.7,104.5,103.4,103.9,104z"/>
	<polygon points="91.8,104 95.4,109.4 88.5,106.1 86.5,107.5 91.8,115.6 93.5,114.5 89.9,109 96.8,112.3 98.9,110.9 93.5,102.8 	"/>
	<path d="M81.7,109.6c-1.3,0.5-2.3,1.3-3,2.4s-0.8,2.6-0.2,4.2c0.6,1.6,1.7,2.5,3,2.8c1.2,0.3,2.5,0.1,3.8-0.4l3-1.2l-3.6-9
		L81.7,109.6z M84.9,116.7c-2.3,0.9-3.7,0.5-4.5-1.3c-0.7-1.9,0-3.3,2.2-4.2l0.8-0.3l2.2,5.5L84.9,116.7z"/>
	<polygon points="68.2,113.3 68.5,115.2 73.5,114.2 73.9,116.3 69.2,117.2 69.5,119.1 74.3,118.1 74.7,120 69.7,121 70.1,122.9
		77.1,121.5 75.2,111.9 	"/>
	<path d="M64.1,113.6l0.1,3.1h-1.6l-2-3.1h-2.3l2.2,3.5c-1.2,0.6-1.9,1.7-1.9,3.1c0,1,0.4,1.8,1.1,2.3c0.7,0.6,1.6,0.8,2.7,0.8
		l4-0.1l-0.2-9.7L64.1,113.6z M62.6,121.4c-1.4,0-2-0.4-2-1.4s0.7-1.4,2-1.5h1.6v2.8L62.6,121.4z"/>
	<polygon points="54.1,117 49.9,116.3 49.6,118.2 53.8,118.8 53.5,120.9 48.9,120.2 48.7,122.1 55.3,123.1 56.7,113.5 54.7,113.2
		"/>
	<path d="M45.1,110.8c-2.4-0.8-4.4,0.2-5.3,2.9l-1.7,5.1l1.9,0.7l1.7-5.2c0.5-1.6,1.4-2.2,2.7-1.7c1.3,0.4,1.6,1.6,1.1,3l-1.7,5.2
		l1.9,0.7l1.7-5.1C48.5,113.6,47.5,111.6,45.1,110.8z"/>
	<polygon points="33.9,105.8 33,107.5 36.9,109.6 33.2,116.4 35,117.4 39.6,108.9 	"/>
	<polygon points="21,103.6 24.3,97.9 22.8,96.4 14.2,101.6 15.7,103.1 21.1,99.7 17.9,105.2 19.5,106.8 25,103.4 21.7,108.9
		23.3,110.4 28.2,101.6 26.7,100.2 	"/>
	<path d="M18.9,93.7c0.3-1.3,0-2.6-0.8-3.7c-0.8-1.2-1.8-1.9-3.1-2.2c-1.3-0.3-2.6,0-3.8,0.8C10,89.3,9.3,90.3,9,91.7
		c-0.3,1.3,0,2.6,0.8,3.8c0.8,1.2,1.8,1.9,3.1,2.2c1.3,0.3,2.6,0,3.8-0.7C17.9,96.1,18.7,95,18.9,93.7z M15.6,95.1
		c-0.7,0.5-1.5,0.6-2.3,0.5s-1.4-0.6-1.9-1.3c-0.5-0.7-0.6-1.4-0.4-2.2c0.2-0.8,0.7-1.4,1.4-1.9s1.5-0.6,2.3-0.5s1.4,0.5,1.9,1.3
		s0.6,1.5,0.4,2.3C16.7,94,16.3,94.6,15.6,95.1z"/>
	<path d="M14,82.5l-2.9,1.2l-0.6-1.5l2.2-2.9l-0.9-2.2l-2.5,3.3c-0.9-0.9-2.3-1.2-3.5-0.6c-0.9,0.4-1.5,1-1.8,1.8
		c-0.3,0.9-0.2,1.8,0.2,2.8l1.5,3.7l9-3.6L14,82.5z M6.7,85.4L6.1,84c-0.5-1.3-0.3-2,0.5-2.4c0.9-0.4,1.6,0.1,2.1,1.3l0.6,1.5
		L6.7,85.4z"/>
	<polygon points="10.1,69.3 8.2,69.7 9.2,74 1.5,75.6 2,77.7 11.5,75.6 	"/>
	<path d="M9.7,64.2c0-1.4-0.5-2.6-1.2-3.6c-0.8-1-2.1-1.7-3.8-1.6c-1.7,0-3,0.8-3.7,1.9c-0.7,1.1-1,2.3-1,3.7l0.1,3.2l9.7-0.3
		L9.7,64.2z M1.9,65.5v-0.8C1.8,62.3,2.8,61,4.7,61c2-0.1,3.1,1.1,3.1,3.5v0.8L1.9,65.5z"/>
	<path d="M5.3,52.6C6.7,53,8,52.8,9.1,52.1s1.9-1.7,2.2-3.1c0.3-1.4,0.2-2.6-0.5-3.8s-1.7-1.9-3.1-2.3c-1.4-0.4-2.7-0.2-3.8,0.5
		c-1.2,0.7-1.9,1.7-2.3,3.1c-0.3,1.4-0.2,2.6,0.5,3.8C2.9,51.5,3.9,52.3,5.3,52.6z M3.6,47c0.2-0.8,0.7-1.4,1.4-1.8s1.5-0.5,2.3-0.3
		s1.5,0.6,1.9,1.3c0.5,0.6,0.6,1.4,0.3,2.2c-0.2,0.9-0.7,1.5-1.4,1.9s-1.5,0.4-2.3,0.2s-1.5-0.6-1.9-1.3C3.5,48.6,3.3,47.9,3.6,47z"/>
	<polygon points="13.9,41.1 10.4,39.5 12.2,35.6 10.5,34.8 8.7,38.7 6.8,37.9 8.7,33.7 7,32.9 4.2,39 13,43 	"/>
	<polygon points="19.7,30.9 15.4,27.4 19.3,28.2 20.5,26.8 18.9,23.1 23.2,26.6 24.5,25.1 17,18.9 15.7,20.5 18.1,26.1 12.2,24.8
		10.9,26.3 18.4,32.5 	"/>
	<path d="M22.4,14.2l3.1,9.9l1.7-1.3l-0.6-2l2.9-2.3l1.8,1l1.7-1.3L24,13L22.4,14.2z M27.8,17.5L25.9,19l-1-3.2L27.8,17.5z"/>
	<path d="M35.5,16.8L34,14.1l1.6-0.9c1-0.5,1.6-1.2,2-2.1c0.3-0.9,0.2-1.8-0.2-2.7c-0.5-0.9-1.2-1.4-2-1.6c-0.9-0.2-1.8,0-2.8,0.5
		l-3.5,1.9l4.6,8.5L35.5,16.8z M31.8,9.9l1.3-0.7c1.3-0.7,2-0.6,2.5,0.2s0.1,1.6-1.2,2.3l-1.3,0.7L31.8,9.9z"/>
	<polygon points="47.7,11.6 47,9.8 42.9,11.2 40.3,3.9 38.3,4.6 41.6,13.7 	"/>
	<polygon points="56.6,9.9 56.3,8 51.3,8.9 50.9,6.8 55.7,6 55.4,4.1 50.6,4.9 50.3,3 55.4,2.2 55,0.3 48,1.5 49.6,11.1 	"/>
</g>
</symbol><symbol id="showreel-out-fr" viewBox="0 0 129 127">
<style type="text/css">
	.st0{fill-rule:evenodd;clip-rule:evenodd;}
	.st1{filter:url(#Adobe_OpacityMaskFilter);}
	.st2{fill-rule:evenodd;clip-rule:evenodd;fill:#FFFFFF;}
	.st3{mask:url(#showreel-b_1_);fill-rule:evenodd;clip-rule:evenodd;}
</style>
<g transform="rotate(-2 74.932 34.145)">
	<polygon class="st0" points="68.7,11.2 71.5,11.4 76.9,0.9 74.2,0.7 70.4,8.3 68.3,0.2 65.5,0 	"/>
	<path class="st0" d="M80.8,10.4c0.3,0.8,1,1.4,2,1.8c0.9,0.3,1.8,0.3,2.6-0.2c0.8-0.4,1.4-1.1,1.7-2.1C87.4,9,87.4,8.1,87,7.2
		c-0.4-0.9-1-1.4-1.9-1.8c-1-0.3-1.8-0.3-2.7,0.2c-0.8,0.4-1.4,1.1-1.7,2.1C80.5,8.6,80.5,9.5,80.8,10.4 M81.4,3.6
		c1.4-0.7,2.9-0.7,4.4-0.2c1.5,0.5,2.7,1.5,3.3,2.9c0.7,1.4,0.8,2.9,0.2,4.4c-0.6,1.6-1.5,2.7-3,3.4c-1.4,0.7-2.9,0.7-4.4,0.2
		c-1.5-0.5-2.6-1.5-3.3-2.9c-0.7-1.4-0.7-2.9-0.2-4.5C79,5.3,80,4.2,81.4,3.6"/>
	<polygon class="st0" points="97.3,8.9 96.7,14.1 101.2,11.4 103.4,12.8 96.3,16.9 94.2,20.1 92.2,18.9 94.3,15.6 95.2,7.5 	"/>
	<path class="st0" d="M107,20.5l-3.6,1.6l2,1.9L107,20.5z M110.1,19l-4.7,11l-1.7-1.7l0.9-2.2l-3.1-3L99.3,24l-1.7-1.7l11-4.9
		L110.1,19z M113,34.3l1.9-1.1l2.4,3.9l-3.8,2.3c-1.5-0.3-3.1-1.3-4.1-2.9c-0.9-1.4-1.1-2.9-0.8-4.4c0.3-1.5,1.2-2.7,2.6-3.6
		c1.5-0.9,3-1.2,4.5-0.8c1.5,0.4,2.7,1.3,3.6,2.7c1,1.6,1.1,3.2,0.5,4.9l-2.2-0.5c0.5-1,0.4-2.3-0.3-3.3c-0.5-0.7-1.1-1.2-2-1.5
		c-0.9-0.2-1.8-0.1-2.7,0.5c-0.9,0.6-1.5,1.3-1.7,2.2c-0.2,0.9-0.1,1.8,0.5,2.6c0.5,0.8,1.1,1.3,1.8,1.6l1.1-0.7L113,34.3z"/>
	<polygon class="st0" points="113.4,43.6 124,40.2 126.5,48.1 124.4,48.7 122.6,43.1 120.5,43.8 122.2,49.1 120.2,49.8 118.5,44.5 
		116.2,45.2 117.9,50.8 115.8,51.4 	"/>
	<path class="st0" d="M125.7,57l-3.2,0.2l0.1,1.8c0.1,1.5,0.7,2.3,1.8,2.2c1.1-0.1,1.5-0.8,1.4-2.4L125.7,57z M117,61.7l3.4-2.4
		l-0.1-1.9l-3.6,0.2l-0.2-2.4l11.2-0.8l0.3,4.6c0.1,1.2-0.2,2.3-0.8,3.1c-0.6,0.9-1.5,1.3-2.6,1.4c-1.6,0.1-2.9-0.7-3.6-1.9
		l-3.9,2.7L117,61.7z M124,78.8l-6.5-2l-0.3,0.9c-0.8,2.7-0.1,4.3,2.1,5c2.1,0.6,3.6-0.4,4.4-3L124,78.8z M116.1,73.9l10.7,3.2
		l-1.1,3.5c-0.5,1.5-1.3,2.8-2.4,3.7c-1.2,0.9-2.8,1.2-4.7,0.7c-1.9-0.6-3.1-1.8-3.6-3.2c-0.5-1.4-0.5-2.9,0-4.4L116.1,73.9z
		 M116.7,93.7l-2.4-3l-1.4,2.4L116.7,93.7z M118.9,96.3L107,94.4l1.2-2.1l2.4,0.3l2.2-3.7l-1.5-1.9l1.2-2.1l7.4,9.4L118.9,96.3z"/>
	<polygon class="st0" points="100.3,101.4 108.8,103.6 103.5,98.2 105.2,96.6 113.1,104.4 111.1,106.5 102.5,104.3 107.9,109.6 
		106.2,111.3 98.3,103.4 	"/>
	<path class="st0" d="M94.9,111.3c2.1-0.8,3.8-0.5,4.8,1c0.5,0.9,0.6,1.8,0.2,2.7c-0.4,1-1,1.7-2,2.3c-1.5,0.9-3,1.1-4.6,0.7
		l0.5-2.3c1.2,0.3,2.2,0.2,3.1-0.4c0.9-0.5,1.2-1.2,0.8-1.8c-0.3-0.5-1-0.6-2-0.2l-1,0.4c-2.3,1-4,0.6-5-1c-0.5-0.9-0.6-1.8-0.2-2.7
		c0.4-1,1.1-1.8,2.3-2.5c1.7-1,3.6-1.1,5.1-0.6l-0.5,2.2c-1.3-0.5-2.4-0.4-3.5,0.3c-1,0.6-1.4,1.4-1,2c0.3,0.5,1,0.6,1.9,0.2
		L94.9,111.3z"/>
	<polygon class="st0" points="78.8,113.5 81.1,124.4 78.8,124.9 76.9,116.1 72,117.2 71.5,115 	"/>
	<polygon class="st0" points="70.2,126.2 67.8,126.4 69.3,122.6 71.5,122.4 	"/>
	<g transform="translate(52.931 114.272)">
		
		<mask maskUnits="userSpaceOnUse" x="0.2" y="0.7" width="10.2" height="11.3" id="showreel-b_1_">
			<g class="st1">
				<polygon id="showreel-a_1_" class="st2" points="0.2,0.5 10.3,0.5 10.3,12.3 0.2,12.3 				"/>
			</g>
		</mask>
		<path class="st3" d="M2.6,11.5l-2.3-0.3l0.7-6.2c0.4-3.3,2.3-4.9,5.2-4.6c2.9,0.3,4.5,2.3,4.1,5.6l-0.7,6.2L7.2,12l0.7-6.3
			c0.2-1.7-0.5-2.9-2-3.1C4.3,2.5,3.5,3.4,3.3,5.3L2.6,11.5z"/>
	</g>
	<polygon class="st0" points="44.4,111.2 46,119.8 48.7,112.8 50.9,113.7 46.9,124.1 44.3,123.1 42.7,114.4 40,121.5 37.8,120.6 
		41.8,110.2 	"/>
	<polygon class="st0" points="38.2,108.1 32.3,117.5 30.3,116.3 36.2,106.8 	"/>
	<polygon class="st0" points="27.8,104.2 20.4,108.4 18.6,106.8 28.9,101.1 30.8,102.7 26.1,113.5 24.3,111.9 	"/>
	<polygon class="st0" points="24.3,96.3 15.1,102.7 10.4,96 12.2,94.7 15.6,99.5 17.4,98.3 14.2,93.7 15.9,92.4 19.2,97 21.2,95.6 
		17.8,90.8 19.6,89.6 	"/>
	<path class="st0" d="M8.5,87.2l3-1.2l-0.7-1.7c-0.6-1.4-1.4-2-2.4-1.6c-1,0.4-1.2,1.3-0.6,2.7L8.5,87.2z M15.4,80.2l-2.5,3.3
		l0.7,1.8l3.3-1.3l0.9,2.2L7.3,90.2l-1.7-4.3c-0.5-1.2-0.5-2.2-0.2-3.2c0.3-1,1-1.7,2.1-2.1c1.5-0.6,3-0.2,4.1,0.8l2.9-3.8
		L15.4,80.2z M8.7,72.1c-0.1,2.2-1,3.7-2.8,4c-1,0.1-1.9-0.1-2.6-0.9c-0.7-0.7-1.2-1.6-1.3-2.8c-0.2-1.7,0.1-3.2,1.2-4.5L5,69.3
		c-0.7,1-1,1.9-0.9,3c0.1,1,0.7,1.6,1.3,1.5C6,73.7,6.3,73.1,6.3,72l0-1.1c0-2.5,1-3.9,2.9-4.2c1-0.1,1.9,0.1,2.6,0.9
		c0.7,0.7,1.2,1.7,1.4,3c0.3,1.9-0.4,3.7-1.5,4.9L10,74.1c0.9-1,1.3-2.1,1.1-3.3c-0.2-1.2-0.8-1.8-1.5-1.8c-0.6,0.1-0.9,0.7-0.9,1.7
		L8.7,72.1z M12.9,56.5l-11-2.3l1.7-8.1l2.1,0.4l-1.2,5.7l2.2,0.4l1.1-5.5l2.1,0.4l-1.1,5.5l2.4,0.5l1.2-5.7l2.1,0.4L12.9,56.5z
		 M0,50.1l0.5-2.6l1.3,1.9l-0.5,2.3L0,50.1z M8.6,38.9l2.9,1.4l0.8-1.7c0.7-1.4,0.5-2.3-0.5-2.8c-1-0.5-1.8,0-2.4,1.4L8.6,38.9z
		 M18.5,39.1l-4.2,0.5l-0.8,1.7l3.2,1.5l-1,2.1L5.6,40.1l2-4.2c0.5-1.1,1.3-1.9,2.2-2.3c0.9-0.5,1.9-0.4,2.9,0
		c1.4,0.7,2.2,2,2.2,3.5l4.7-0.5L18.5,39.1z M18.1,25.4l2,3.4l1.8-2.1L18.1,25.4z M16.3,22.4l11.4,3.7L26.2,28l-2.3-0.7l-2.7,3.3
		l1.2,2.1l-1.6,1.9l-5.9-10.4L16.3,22.4z M30.5,21l1.9-1.4c1.1-0.8,1.4-1.5,0.8-2.2c-0.5-0.6-1.3-0.6-2.3,0.2L29,19L30.5,21z
		 M26.4,15.6l1.4,1.8l1.8-1.4c1-0.7,1.2-1.4,0.8-2c-0.5-0.7-1.1-0.6-2.2,0.3L26.4,15.6z M29.9,24.2l-6.7-8.9l4-3
		c1.9-1.4,3.7-1.4,4.9,0.2c0.5,0.7,0.7,1.6,0.4,2.5c1.2,0,2,0.4,2.7,1.2c0.6,0.8,0.8,1.6,0.6,2.5c-0.2,0.9-0.8,1.7-1.7,2.4
		L29.9,24.2z"/>
	<polygon class="st0" points="40.3,17.1 35.7,6.9 37.8,6 41.5,14.1 46.2,12.1 47.1,14 	"/>
	<polygon class="st0" points="50.1,13.1 47.9,2.1 55.9,0.5 56.4,2.6 50.6,3.8 51.1,6 56.6,4.8 57,6.9 51.5,8.1 52,10.4 57.8,9.3 
		58.2,11.4 	"/>
</g>
</symbol><symbol id="snowflake" viewBox="0 0 24 24"><path d="M22.8943857,18 C22.7552138,18.2402344 22.5067295,18.375 22.2475107,18.375 C22.1200576,18.375 21.9919013,18.3427734 21.8732607,18.2739375 L18.891542,16.553625 L19.521542,18.9039375 C19.6291201,19.3052813 19.3911826,19.7153437 18.9913857,19.823625 C18.9261826,19.8397406 18.8610263,19.8485297 18.7965732,19.8485297 C18.465542,19.8485297 18.1628232,19.6273266 18.0728232,19.2935297 L17.0546982,15.4938422 L13.2475107,13.2984375 L13.2475107,17.6901563 L16.027667,20.4703125 C16.3206357,20.7632812 16.3206357,21.238125 16.027667,21.530625 C15.8818857,21.675 15.6896982,21.75 15.4553232,21.75 C15.2209482,21.75 15.0715107,21.6767812 14.925167,21.53025 L13.2475107,19.809375 L13.2475107,23.25 C13.2475107,23.6645625 12.9120732,24 12.4975107,24 C12.0829482,24 11.7475107,23.6645625 11.7475107,23.25 L11.7475107,19.8103125 L10.027667,21.5301563 C9.7346982,21.823125 9.25985445,21.823125 8.96735445,21.5301563 C8.67485445,21.2371875 8.6743857,20.7623437 8.96735445,20.4698437 L11.7475107,17.690625 L11.7475107,13.2984375 L7.9412607,15.4945313 L6.9231357,19.2942187 C6.83304195,19.6282031 6.53055758,19.8492187 6.1993857,19.8492187 C6.13493258,19.8492187 6.06972945,19.8404297 6.0045732,19.8243141 C5.60468258,19.7159391 5.36660445,19.3058766 5.47441695,18.9046266 L6.10441695,16.5543141 L3.1226982,18.2746266 C3.00485445,18.3421875 2.8759482,18.375 2.7484482,18.375 C2.48927633,18.375 2.24079195,18.2402344 2.1015732,18 C1.89429195,17.641125 2.01387008,17.1825 2.37274508,16.97625 L5.35399508,15.2559375 L3.0025107,14.625 C2.60266695,14.5171875 2.36547945,14.0671875 2.47235445,13.70625 C2.57922945,13.3453125 2.9940732,13.078125 3.3906357,13.1765625 L7.1912607,14.19375 L10.9975107,12 L7.1912607,9.80625 L3.3906357,10.8234375 C3.32547945,10.8421875 3.2603232,10.846875 3.19610445,10.846875 C2.8650732,10.846875 2.5618857,10.6256719 2.47235445,10.29 C2.36547945,9.890625 2.60266695,9.4828125 3.0025107,9.3328125 L5.35422945,8.70328125 L2.37297945,7.021875 C2.01391695,6.815625 1.8943857,6.3609375 2.1015732,6 C2.30810445,5.641125 2.7606357,5.5153125 3.1225107,5.7260625 L6.10422945,7.446375 L5.47422945,5.0960625 C5.3678232,4.696875 5.5646982,4.28484375 6.0053232,4.17609375 C6.4037607,4.078125 6.8162607,4.30828125 6.9240732,4.70625 L7.9421982,8.5059375 L11.7475107,10.7015625 L11.7475107,6.309375 L8.9678232,3.53015625 C8.67485445,3.2371875 8.67485445,2.76234375 8.9678232,2.46984375 C9.26079195,2.17734375 9.7356357,2.176875 10.0281357,2.46984375 L11.7475107,4.1896875 L11.7475107,0.75 C11.7475107,0.3354375 12.0850107,0 12.4975107,0 C12.9100107,0 13.2475107,0.3354375 13.2475107,0.75 L13.2475107,4.1896875 L14.9673545,2.46984375 C15.2603232,2.176875 15.735167,2.176875 16.027667,2.46984375 C16.320167,2.7628125 16.3206357,3.23765625 16.027667,3.53015625 L13.2475107,6.309375 L13.2475107,10.7010938 L17.0537607,8.505 L18.0718857,4.7053125 C18.1795576,4.306875 18.5940732,4.078125 18.990167,4.17515625 C19.3900576,4.28353125 19.6281357,4.69359375 19.5203232,5.09484375 L18.8903232,7.44515625 L21.872042,5.72484375 C22.2287607,5.5171875 22.6834482,5.6390625 22.8943857,6 C23.101667,6.358875 22.9820888,6.8175 22.6232138,7.02375 L19.6412607,8.7421875 L21.9929795,9.37171875 C22.3927763,9.48009375 22.6300107,9.89015625 22.5231357,10.29 C22.433792,10.6254375 22.1306513,10.846875 21.7993857,10.846875 C21.7349326,10.846875 21.6697295,10.8380859 21.6045732,10.8219703 L17.8037607,9.80625 L13.9553232,12 L17.7606357,14.195625 L21.5621982,13.1765625 C21.9620888,13.0769531 22.374542,13.308375 22.4804795,13.708125 C22.5874013,14.1080156 22.3501201,14.518125 21.9503232,14.6264062 L19.5986045,15.2559375 L22.5798545,16.97625 C22.9787607,17.184375 23.1006357,17.6390625 22.8943857,18 Z"/></symbol><symbol id="spinner" viewBox="0 0 18 18">
<path d="M0.7,9.9C0.5,5.2,4.1,1.2,8.5,1c4.7-0.3,8.9,3.8,8.8,8.8"/>
</symbol><symbol id="twitter" viewBox="0 0 19.8 17.3">
<path d="M19.8,2c-0.7,0.4-1.5,0.6-2.4,0.7c0.9-0.6,1.5-1.4,1.8-2.4c-0.8,0.5-1.7,0.9-2.6,1.1C15.9,0.6,14.8,0,13.7,0
	c-2.2,0-4,1.9-4,4.4c0,0.3,0.1,0.7,0.1,1C6.4,5.3,3.3,3.5,1.3,0.9C1,1.3,0.8,2.1,0.8,2.9c0,1.5,0.7,2.9,1.8,3.7
	C1.9,6.6,1.3,6.4,0.7,6v0.1c0,2.1,1.4,3.9,3.2,4.3c-0.2,0.1-0.6,0.1-1,0.1c-0.2,0-0.5,0-0.7-0.1c0.5,1.7,2,3,3.8,3.1
	c-1.4,1.2-3.2,1.9-5,1.9c-0.3,0-0.7,0-1-0.1c1.8,1.2,3.9,2,6.2,2c7.5,0,11.6-6.7,11.6-12.5c0-0.2,0-0.4,0-0.6
	C18.6,3.7,19.3,2.8,19.8,2z"/>
</symbol></svg>